<svg width="31" height="31" viewBox="0 0 31 31" fill="none" xmlns="http://www.w3.org/2000/svg">
<path d="M18.0833 24.5417C22.9541 24.5417 25.3902 24.5417 26.9028 23.0278C28.4166 21.5153 28.4166 19.0792 28.4166 14.2083C28.4166 9.33746 28.4166 6.90138 26.9028 5.38883C25.3902 3.875 22.9541 3.875 18.0833 3.875H12.9166C8.04571 3.875 5.60963 3.875 4.09709 5.38883C2.58325 6.90138 2.58325 9.33746 2.58325 14.2083C2.58325 19.0792 2.58325 21.5153 4.09709 23.0278C4.94054 23.8726 6.07075 24.2459 7.74992 24.4099" stroke="#D9D9D9" stroke-width="2.58333" stroke-linecap="round" stroke-linejoin="round"/>
<path d="M15.4999 14.2084V14.2213M10.3333 14.2084V14.2213M20.6666 14.2084V14.2213M18.0833 24.5417C16.4868 24.5417 14.7275 25.1876 13.122 26.0207C10.5412 27.3602 9.25086 28.0305 8.61536 27.603C7.97986 27.1767 8.09999 25.8528 8.34153 23.2062L8.39578 22.6042" stroke="#D9D9D9" stroke-width="2.58333" stroke-linecap="round"/>
</svg>
