<svg width="22" height="22" viewBox="0 0 22 22" fill="none" xmlns="http://www.w3.org/2000/svg">
<path d="M19.4856 10.0484C19.9201 10.6168 19.9201 11.384 19.4856 11.9514C18.117 13.738 14.8335 17.4166 11 17.4166C7.16647 17.4166 3.88297 13.738 2.51439 11.9514C2.30299 11.6793 2.18823 11.3445 2.18823 10.9999C2.18823 10.6553 2.30299 10.3205 2.51439 10.0484C3.88297 8.26184 7.16647 4.58325 11 4.58325C14.8335 4.58325 18.117 8.26184 19.4856 10.0484V10.0484Z" stroke="#AEAEAE" stroke-width="1.83333" stroke-linecap="round" stroke-linejoin="round"/>
<path d="M11 13.75C12.5188 13.75 13.75 12.5188 13.75 11C13.75 9.48122 12.5188 8.25 11 8.25C9.48122 8.25 8.25 9.48122 8.25 11C8.25 12.5188 9.48122 13.75 11 13.75Z" stroke="#AEAEAE" stroke-width="1.83333" stroke-linecap="round" stroke-linejoin="round"/>
</svg>
