<svg width="37" height="37" viewBox="0 0 37 37" fill="none" xmlns="http://www.w3.org/2000/svg">
<path d="M33.3471 25.3616H11.83L12.9104 23.1611L30.8611 23.1286C31.4682 23.1286 31.9885 22.695 32.0969 22.0952L34.5828 8.18047C34.6479 7.81553 34.5503 7.43975 34.3118 7.1543C34.194 7.01381 34.0469 6.90065 33.881 6.82266C33.715 6.74467 33.5341 6.70371 33.3507 6.70264L10.5147 6.62676L10.3196 5.70898C10.1968 5.12363 9.66924 4.69727 9.06943 4.69727H3.48691C3.14863 4.69727 2.82421 4.83165 2.58501 5.07085C2.34581 5.31005 2.21143 5.63447 2.21143 5.97275C2.21143 6.31103 2.34581 6.63546 2.58501 6.87466C2.82421 7.11386 3.14863 7.24824 3.48691 7.24824H8.03604L8.88877 11.3023L10.9881 21.4665L8.28535 25.8783C8.14499 26.0678 8.06046 26.2927 8.0413 26.5277C8.02214 26.7627 8.06913 26.9983 8.17695 27.208C8.39375 27.638 8.83096 27.909 9.31514 27.909H11.5843C11.1005 28.5515 10.8392 29.3341 10.8399 30.1384C10.8399 32.1835 12.5021 33.8456 14.5472 33.8456C16.5923 33.8456 18.2544 32.1835 18.2544 30.1384C18.2544 29.3326 17.987 28.5485 17.5101 27.909H23.3311C22.8473 28.5515 22.586 29.3341 22.5867 30.1384C22.5867 32.1835 24.2488 33.8456 26.2939 33.8456C28.3391 33.8456 30.0012 32.1835 30.0012 30.1384C30.0012 29.3326 29.7338 28.5485 29.2568 27.909H33.3507C34.0517 27.909 34.6262 27.3381 34.6262 26.6335C34.6241 26.2956 34.4884 25.9722 34.2488 25.7339C34.0091 25.4956 33.685 25.3618 33.3471 25.3616ZM11.0459 9.1416L31.8512 9.21025L29.8133 20.621L13.4704 20.6499L11.0459 9.1416ZM14.5472 31.2802C13.9185 31.2802 13.4054 30.7671 13.4054 30.1384C13.4054 29.5097 13.9185 28.9966 14.5472 28.9966C15.1759 28.9966 15.689 29.5097 15.689 30.1384C15.689 30.4412 15.5687 30.7316 15.3545 30.9458C15.1404 31.1599 14.85 31.2802 14.5472 31.2802ZM26.2939 31.2802C25.6652 31.2802 25.1521 30.7671 25.1521 30.1384C25.1521 29.5097 25.6652 28.9966 26.2939 28.9966C26.9227 28.9966 27.4357 29.5097 27.4357 30.1384C27.4357 30.4412 27.3154 30.7316 27.1013 30.9458C26.8872 31.1599 26.5968 31.2802 26.2939 31.2802Z" fill="white"/>
</svg>
