<svg width="25" height="26" viewBox="0 0 25 26" fill="none" xmlns="http://www.w3.org/2000/svg">
<g clip-path="url(#clip0_275_9)">
<path d="M0 2.43985C0 2.23265 0.08231 2.03394 0.228823 1.88742C0.375336 1.74091 0.57405 1.6586 0.78125 1.6586H3.125C3.29927 1.65865 3.46852 1.71696 3.60583 1.82426C3.74314 1.93157 3.84064 2.0817 3.88281 2.25079L4.51563 4.7836H22.6562C22.771 4.78371 22.8842 4.80907 22.988 4.8579C23.0919 4.90672 23.1836 4.97781 23.2569 5.06611C23.3301 5.1544 23.383 5.25774 23.4118 5.36878C23.4406 5.47983 23.4445 5.59585 23.4234 5.7086L21.0797 18.2086C21.0462 18.3876 20.9512 18.5493 20.8111 18.6657C20.671 18.7821 20.4946 18.8459 20.3125 18.8461H6.25C6.06786 18.8459 5.89151 18.7821 5.75142 18.6657C5.61134 18.5493 5.51633 18.3876 5.48281 18.2086L3.14062 5.73204L2.51563 3.2211H0.78125C0.57405 3.2211 0.375336 3.13879 0.228823 2.99228C0.08231 2.84576 0 2.64705 0 2.43985ZM4.84687 6.3461L6.89844 17.2836H19.6641L21.7156 6.3461H4.84687ZM7.8125 18.8461C6.9837 18.8461 6.18884 19.1753 5.60279 19.7614C5.01674 20.3474 4.6875 21.1423 4.6875 21.9711C4.6875 22.7999 5.01674 23.5948 5.60279 24.1808C6.18884 24.7669 6.9837 25.0961 7.8125 25.0961C8.6413 25.0961 9.43616 24.7669 10.0222 24.1808C10.6083 23.5948 10.9375 22.7999 10.9375 21.9711C10.9375 21.1423 10.6083 20.3474 10.0222 19.7614C9.43616 19.1753 8.6413 18.8461 7.8125 18.8461ZM18.75 18.8461C17.9212 18.8461 17.1263 19.1753 16.5403 19.7614C15.9542 20.3474 15.625 21.1423 15.625 21.9711C15.625 22.7999 15.9542 23.5948 16.5403 24.1808C17.1263 24.7669 17.9212 25.0961 18.75 25.0961C19.5788 25.0961 20.3737 24.7669 20.9597 24.1808C21.5458 23.5948 21.875 22.7999 21.875 21.9711C21.875 21.1423 21.5458 20.3474 20.9597 19.7614C20.3737 19.1753 19.5788 18.8461 18.75 18.8461ZM7.8125 20.4086C8.2269 20.4086 8.62433 20.5732 8.91735 20.8662C9.21038 21.1593 9.375 21.5567 9.375 21.9711C9.375 22.3855 9.21038 22.7829 8.91735 23.076C8.62433 23.369 8.2269 23.5336 7.8125 23.5336C7.3981 23.5336 7.00067 23.369 6.70765 23.076C6.41462 22.7829 6.25 22.3855 6.25 21.9711C6.25 21.5567 6.41462 21.1593 6.70765 20.8662C7.00067 20.5732 7.3981 20.4086 7.8125 20.4086ZM18.75 20.4086C19.1644 20.4086 19.5618 20.5732 19.8549 20.8662C20.1479 21.1593 20.3125 21.5567 20.3125 21.9711C20.3125 22.3855 20.1479 22.7829 19.8549 23.076C19.5618 23.369 19.1644 23.5336 18.75 23.5336C18.3356 23.5336 17.9382 23.369 17.6451 23.076C17.3521 22.7829 17.1875 22.3855 17.1875 21.9711C17.1875 21.5567 17.3521 21.1593 17.6451 20.8662C17.9382 20.5732 18.3356 20.4086 18.75 20.4086V20.4086Z" fill="#00BEBE"/>
</g>
<defs>
<clipPath id="clip0_275_9">
<rect width="25" height="25" fill="white" transform="translate(0 0.0960999)"/>
</clipPath>
</defs>
</svg>
