<svg width="34" height="34" viewBox="0 0 34 34" fill="none" xmlns="http://www.w3.org/2000/svg">
<path d="M18.0057 3.24409C17.874 3.11131 17.7173 3.00592 17.5446 2.93399C17.372 2.86207 17.1868 2.82504 16.9998 2.82504C16.8128 2.82504 16.6276 2.86207 16.455 2.93399C16.2824 3.00592 16.1257 3.11131 15.994 3.24409L3.244 15.9941C3.11122 16.1258 3.00582 16.2825 2.9339 16.4551C2.86198 16.6277 2.82495 16.8129 2.82495 16.9999C2.82495 17.1869 2.86198 17.3721 2.9339 17.5447C3.00582 17.7174 3.11122 17.8741 3.244 18.0058C3.37637 18.1371 3.53336 18.2409 3.70596 18.3114C3.87857 18.3819 4.06339 18.4177 4.24983 18.4166H5.6665V28.3333C5.6665 29.0847 5.96501 29.8054 6.49636 30.3367C7.02772 30.8681 7.74839 31.1666 8.49983 31.1666H25.4998C26.2513 31.1666 26.9719 30.8681 27.5033 30.3367C28.0347 29.8054 28.3332 29.0847 28.3332 28.3333V18.4166H29.7498C30.1256 18.4166 30.4859 18.2673 30.7516 18.0017C31.0172 17.736 31.1665 17.3756 31.1665 16.9999C31.1676 16.8135 31.1318 16.6287 31.0613 16.4561C30.9908 16.2835 30.887 16.1265 30.7557 15.9941L18.0057 3.24409ZM8.49983 28.3333V14.7474L16.9998 6.24742L25.4998 14.7474V28.3333H8.49983Z" fill="#D9D9D9"/>
</svg>
