<svg width="25" height="25" viewBox="0 0 25 25" fill="none" xmlns="http://www.w3.org/2000/svg">
<g clip-path="url(#clip0_239_1362)">
<path d="M5.84702 22.6391C4.69855 22.6392 3.59608 22.1877 2.77757 21.3821L2.6873 21.2918C2.27605 20.8906 1.94928 20.411 1.72626 19.8815C1.50323 19.3519 1.38845 18.7831 1.38868 18.2085C1.38723 17.5864 1.50925 16.9703 1.74766 16.3957C1.98607 15.8211 2.33614 15.2996 2.77757 14.8613L13.5415 4.21545C14.6351 3.07675 16.1323 2.4132 17.7105 2.36773C19.2887 2.32227 20.8216 2.89854 21.979 3.9724C22.501 4.49309 22.9141 5.11247 23.1943 5.79445C23.4744 6.47642 23.6161 7.20735 23.6109 7.94462C23.6047 8.76802 23.4359 9.58209 23.1141 10.34C22.7924 11.098 22.324 11.7849 21.7359 12.3613L12.0623 21.9446C12.0022 22.0255 11.9251 22.0923 11.8366 22.1405C11.748 22.1886 11.6501 22.2169 11.5495 22.2233C11.4489 22.2298 11.3481 22.2143 11.2541 22.1779C11.1601 22.1415 11.0752 22.085 11.0052 22.0125C10.9352 21.9399 10.8819 21.853 10.8489 21.7578C10.8158 21.6626 10.8039 21.5613 10.814 21.461C10.8241 21.3607 10.8558 21.2638 10.9071 21.1771C10.9584 21.0903 11.0279 21.0157 11.1109 20.9585L20.7567 11.3752C21.2148 10.928 21.5801 10.3948 21.8315 9.80604C22.083 9.21733 22.2157 8.58475 22.222 7.94462C22.227 7.39062 22.1215 6.84119 21.9117 6.32845C21.7018 5.81572 21.3918 5.34999 20.9998 4.95851C20.1024 4.14105 18.9201 3.70852 17.707 3.75398C16.494 3.79943 15.3473 4.31924 14.5137 5.20156L3.78452 15.8474C3.46834 16.1544 3.21647 16.5213 3.04359 16.9267C2.8707 17.3321 2.78027 17.7678 2.77757 18.2085C2.77609 18.5955 2.85144 18.9789 2.99926 19.3365C3.14708 19.6941 3.36442 20.0189 3.63868 20.2918L3.72896 20.3821C4.35032 20.9543 5.1715 21.2596 6.01573 21.2323C6.85996 21.2051 7.65972 20.8474 8.24285 20.2363L17.5137 11.0696C17.689 10.8924 17.8272 10.6819 17.9202 10.4506C18.0132 10.2192 18.0592 9.97169 18.0554 9.7224C18.0569 9.50587 18.0153 9.2912 17.933 9.0909C17.8508 8.8906 17.7295 8.70868 17.5762 8.55573C17.2255 8.23414 16.7624 8.06336 16.2869 8.08025C15.8113 8.09714 15.3615 8.30035 15.0345 8.64601L8.64563 14.9793C8.51486 15.1092 8.33787 15.1818 8.15359 15.1811C7.96931 15.1805 7.79284 15.1066 7.66299 14.9759C7.53314 14.8451 7.46056 14.6681 7.46121 14.4838C7.46187 14.2995 7.5357 14.1231 7.66646 13.9932L14.0831 7.63906C14.6713 7.03651 15.4728 6.68934 16.3146 6.67245C17.1565 6.65556 17.9713 6.97031 18.5831 7.54878C18.8645 7.83524 19.0857 8.17515 19.2336 8.54847C19.3815 8.92179 19.4531 9.32095 19.4442 9.7224C19.4435 10.1547 19.3565 10.5825 19.1884 10.9808C19.0202 11.3791 18.7743 11.7398 18.4651 12.0418L9.22202 21.2363C8.32611 22.1308 7.11302 22.635 5.84702 22.6391Z" fill="#A0A0A0"/>
</g>
<defs>
<clipPath id="clip0_239_1362">
<rect width="25" height="25" fill="white"/>
</clipPath>
</defs>
</svg>
