<svg width="51" height="51" viewBox="0 0 51 51" fill="none" xmlns="http://www.w3.org/2000/svg">
<g clip-path="url(#clip0_414_30)">
<circle cx="25.5" cy="25.5" r="25.5" fill="white"/>
<path d="M5.35509 39.0915C5.35509 38.9495 5.41151 38.8133 5.51193 38.7129C5.61236 38.6124 5.74857 38.556 5.89059 38.556H13.3876C13.5296 38.556 13.6658 38.6124 13.7662 38.7129C13.8667 38.8133 13.9231 38.9495 13.9231 39.0915C13.9231 39.2335 13.8667 39.3697 13.7662 39.4702C13.6658 39.5706 13.5296 39.627 13.3876 39.627H5.89059C5.74857 39.627 5.61236 39.5706 5.51193 39.4702C5.41151 39.3697 5.35509 39.2335 5.35509 39.0915ZM11.2456 41.769C11.1036 41.769 10.9674 41.8254 10.8669 41.9259C10.7665 42.0263 10.7101 42.1625 10.7101 42.3045C10.7101 42.4465 10.7665 42.5827 10.8669 42.6832C10.9674 42.7836 11.1036 42.84 11.2456 42.84H13.3876C13.5296 42.84 13.6658 42.7836 13.7662 42.6832C13.8667 42.5827 13.9231 42.4465 13.9231 42.3045C13.9231 42.1625 13.8667 42.0263 13.7662 41.9259C13.6658 41.8254 13.5296 41.769 13.3876 41.769H11.2456ZM10.7101 45.5175C10.7101 45.3755 10.7665 45.2393 10.8669 45.1389C10.9674 45.0384 11.1036 44.982 11.2456 44.982H13.3876C13.5296 44.982 13.6658 45.0384 13.7662 45.1389C13.8667 45.2393 13.9231 45.3755 13.9231 45.5175C13.9231 45.6595 13.8667 45.7957 13.7662 45.8962C13.6658 45.9966 13.5296 46.053 13.3876 46.053H11.2456C11.1036 46.053 10.9674 45.9966 10.8669 45.8962C10.7665 45.7957 10.7101 45.6595 10.7101 45.5175ZM5.89059 41.769C5.74857 41.769 5.61236 41.8254 5.51193 41.9259C5.41151 42.0263 5.35509 42.1625 5.35509 42.3045V45.5175C5.35509 45.6595 5.41151 45.7957 5.51193 45.8962C5.61236 45.9966 5.74857 46.053 5.89059 46.053H9.10359C9.24561 46.053 9.38182 45.9966 9.48225 45.8962C9.58267 45.7957 9.63909 45.6595 9.63909 45.5175V42.3045C9.63909 42.1625 9.58267 42.0263 9.48225 41.9259C9.38182 41.8254 9.24561 41.769 9.10359 41.769H5.89059ZM6.42609 44.982V42.84H8.56809V44.982H6.42609ZM2.14209 37.485C2.14209 36.9169 2.36776 36.3721 2.76947 35.9704C3.17117 35.5687 3.716 35.343 4.28409 35.343H14.9941C15.5622 35.343 16.107 35.5687 16.5087 35.9704C16.9104 36.3721 17.1361 36.9169 17.1361 37.485V38.556C17.7042 38.556 18.249 38.7817 18.6507 39.1834C19.0524 39.5851 19.2781 40.1299 19.2781 40.698V46.5885C19.2781 47.2986 18.996 47.9797 18.4939 48.4818C17.9917 48.9839 17.3107 49.266 16.6006 49.266H4.81959C4.10947 49.266 3.42844 48.9839 2.92631 48.4818C2.42418 47.9797 2.14209 47.2986 2.14209 46.5885V37.485ZM16.0651 37.485C16.0651 37.201 15.9523 36.9286 15.7514 36.7277C15.5505 36.5269 15.2781 36.414 14.9941 36.414H4.28409C4.00004 36.414 3.72763 36.5269 3.52678 36.7277C3.32593 36.9286 3.21309 37.201 3.21309 37.485V46.5885C3.21309 47.0146 3.38235 47.4232 3.68362 47.7245C3.9849 48.0258 4.39352 48.195 4.81959 48.195H16.6006C17.0267 48.195 17.4353 48.0258 17.7366 47.7245C18.0378 47.4232 18.2071 47.0146 18.2071 46.5885V40.698C18.2071 40.414 18.0943 40.1416 17.8934 39.9407C17.6926 39.7399 17.4201 39.627 17.1361 39.627V46.5885C17.1361 46.7305 17.0797 46.8667 16.9792 46.9672C16.8788 47.0676 16.7426 47.124 16.6006 47.124C16.4586 47.124 16.3224 47.0676 16.2219 46.9672C16.1215 46.8667 16.0651 46.7305 16.0651 46.5885V37.485Z" fill="#00A6A6"/>
<path d="M47.5564 33.263C48.0526 31.9227 48.1959 30.6447 47.8395 29.4977C47.6752 29.5125 47.5049 29.5201 47.3305 29.5201C42.1071 29.5201 32.875 22.9529 32.1763 21.9298C29.2974 26.1235 23.2631 29.3478 20.5356 32.9637C19.4319 34.4268 18.8801 35.5157 19.9782 37.1895L31.4781 51.9657C31.9968 52.668 33.0132 52.7251 33.7369 52.0774C33.7369 52.0774 43.1679 39.9756 49.9809 36.2312C49.4689 35.2311 48.6167 34.233 47.5564 33.263M31.2777 48.8343L31.2298 48.8675L31.1864 48.9052C31.0106 49.0629 30.8545 49.2412 30.7213 49.4361L20.7569 36.6336C20.0394 35.5233 20.2428 34.9389 21.2991 33.5394C22.497 31.9518 24.4116 30.4106 26.4388 28.7791C28.5462 27.0828 30.7167 25.3366 32.311 23.3496C34.9426 25.5151 42.3034 30.2964 47.0663 30.4713C47.6375 36.0798 36.0085 45.5347 31.2777 48.8343" fill="#00A6A6"/>
<path d="M28.5566 28.1303L41.4112 38.2028L41.8691 37.7928L28.8912 27.8304L28.5566 28.1303ZM32.7457 33.4919L27.4846 29.0896C27.4846 29.0896 25.6537 30.2585 23.4362 32.8223L28.1037 37.6479L32.7457 33.4919M21.2192 35.2203L31.1479 47.3894L32.9814 45.7488L22.3958 33.646C22.3958 33.646 21.4732 34.1453 21.2192 35.2203ZM32.3444 35.918L38.112 41.1557L39.9444 39.515L33.9391 34.4905L32.3444 35.918ZM29.1548 38.7735L34.4471 44.4365L36.279 42.7964L30.7496 37.346L29.1548 38.7735ZM32.5672 26.3953L31.7895 28.5791L32.2771 28.9341L34.7531 26.7171L34.2686 26.4121L32.5627 27.9396L33.3169 25.8108L32.811 25.4916L30.4513 27.604L30.874 27.9115L32.5672 26.3953ZM34.6863 30.691L35.1586 30.2672L33.7178 29.2431L34.3711 28.6587L35.6507 29.5349L36.1051 29.1274L34.8112 28.2634L35.3508 27.781L36.7834 28.7076L37.2485 28.292L35.2677 27.0415L32.7595 29.287L34.6863 30.691ZM36.2209 31.8089L38.1788 30.6232L38.8198 30.2172L38.3945 30.767L37.1348 32.476L37.7432 32.9192L41.5111 30.9817L40.7961 30.5304L38.7301 31.7126L38.2027 32.0318L38.5567 31.5662L39.7812 29.8898L39.0937 29.4563L37.1838 30.64L36.6763 30.9608L37.0257 30.5166L38.1823 28.881L37.5377 28.4741L35.6706 31.4081L36.2209 31.8089ZM43.3027 31.9793C42.8392 31.6881 42.4062 31.5488 42.0012 31.557C41.5993 31.5657 41.2699 31.6865 41.0103 31.9191C40.7252 32.1741 40.6293 32.4388 40.7232 32.7132C40.7782 32.8779 40.9537 33.1161 41.2531 33.4313L41.5626 33.7566C41.7472 33.9484 41.8661 34.1055 41.9181 34.2258C41.9691 34.3477 41.9441 34.4543 41.8436 34.5441C41.6718 34.6976 41.4479 34.7267 41.173 34.6328C41.0021 34.568 40.841 34.4796 40.6946 34.3702C40.4039 34.1631 40.2626 33.9637 40.2662 33.7714C40.2682 33.6664 40.3259 33.546 40.4386 33.4103L39.77 32.9442C39.4686 33.214 39.3543 33.5149 39.4298 33.8489C39.5058 34.1861 39.7644 34.5186 40.2132 34.846C40.6604 35.1739 41.1057 35.3494 41.5432 35.3687C41.9854 35.3876 42.3496 35.2713 42.6301 35.0189C42.9055 34.7731 43.0034 34.5089 42.9248 34.2279C42.8749 34.0478 42.7346 33.8382 42.5082 33.5996L42.0007 33.0641C41.8074 32.8621 41.6922 32.7218 41.6529 32.6418C41.5917 32.5199 41.6136 32.4123 41.7192 32.3184C41.8339 32.2154 41.9808 32.1736 42.1603 32.1914C42.3424 32.2093 42.5321 32.2822 42.7305 32.4097C42.9106 32.526 43.0375 32.6464 43.1084 32.7708C43.2181 32.9585 43.1875 33.1395 43.0192 33.3114L43.7725 33.8076C44.0856 33.5057 44.1835 33.1859 44.0667 32.8499C43.9525 32.5168 43.697 32.2261 43.3027 31.9793" fill="#00A6A6"/>
<g clip-path="url(#clip1_414_30)">
<path d="M2.29492 11.7299H14.9174V16.3199H2.29492V11.7299ZM2.29492 9.43488H14.9174V10.5824H2.29492V9.43488ZM9.17992 22.0574H12.6224V23.2049H9.17992V22.0574ZM9.17992 19.7624H14.9174V20.9099H9.17992V19.7624ZM9.17992 17.4674H14.9174V18.6149H9.17992V17.4674ZM2.29492 22.0574H8.03242V23.2049H2.29492V22.0574ZM2.29492 19.7624H8.03242V20.9099H2.29492V19.7624ZM2.29492 17.4674H8.03242V18.6149H2.29492V17.4674Z" fill="#00A6A6"/>
<path d="M17.2125 9.43501V7.14001H0V23.7788C0 24.2353 0.181345 24.6731 0.504142 24.9959C0.826939 25.3187 1.26475 25.5 1.72125 25.5H16.6388C17.0953 25.5 17.5331 25.3187 17.8559 24.9959C18.1787 24.6731 18.36 24.2353 18.36 23.7788V9.43501H17.2125ZM1.72125 24.3525C1.56908 24.3525 1.42315 24.2921 1.31555 24.1845C1.20795 24.0769 1.1475 23.9309 1.1475 23.7788V8.28751H16.065V22.6313C16.065 24.3525 17.2125 24.3525 17.2125 24.3525H1.72125Z" fill="#00A6A6"/>
</g>
<g clip-path="url(#clip2_414_30)">
<path d="M37.74 -3.18762C38.319 -3.18781 38.8767 -2.96913 39.3012 -2.57543C39.7258 -2.18174 39.9858 -1.64212 40.0293 -1.06475L40.035 -0.892622V4.84488H41.7563C42.1841 4.8449 42.5967 5.00429 42.9134 5.29197C43.2302 5.57964 43.4284 5.97498 43.4695 6.40089L43.4775 6.56613V15.1724C43.4776 16.0505 43.1421 16.8954 42.5397 17.5342C41.9373 18.1731 41.1135 18.5576 40.237 18.6091L40.035 18.6149H25.1175C24.5385 18.6151 23.9808 18.3964 23.5563 18.0027C23.1317 17.609 22.8717 17.0694 22.8282 16.492L22.8225 16.3199V-0.892622C22.8223 -1.47162 23.041 -2.0293 23.4347 -2.45385C23.8284 -2.8784 24.368 -3.13846 24.9454 -3.18188L25.1175 -3.18762H37.74ZM41.1825 7.13988H40.035V16.3199C40.3393 16.3199 40.6312 16.199 40.8464 15.9838C41.0616 15.7686 41.1825 15.4767 41.1825 15.1724V7.13988ZM37.74 -0.892622H25.1175V16.3199H37.74V-0.892622ZM32.0025 8.28738C32.295 8.2877 32.5763 8.39969 32.789 8.60047C33.0016 8.80125 33.1296 9.07566 33.1468 9.36763C33.1639 9.6596 33.0689 9.9471 32.8812 10.1714C32.6935 10.3957 32.4272 10.5398 32.1368 10.5743L32.0025 10.5824H28.56C28.2675 10.5821 27.9862 10.4701 27.7735 10.2693C27.5609 10.0685 27.4329 9.7941 27.4158 9.50213C27.3986 9.21016 27.4936 8.92266 27.6813 8.69838C27.869 8.47409 28.1353 8.32995 28.4258 8.29541L28.56 8.28738H32.0025ZM34.2975 2.54988C34.6018 2.54988 34.8937 2.67078 35.1089 2.88597C35.3241 3.10117 35.445 3.39304 35.445 3.69738C35.445 4.00171 35.3241 4.29359 35.1089 4.50878C34.8937 4.72398 34.6018 4.84488 34.2975 4.84488H28.56C28.2557 4.84488 27.9638 4.72398 27.7486 4.50878C27.5334 4.29359 27.4125 4.00171 27.4125 3.69738C27.4125 3.39304 27.5334 3.10117 27.7486 2.88597C27.9638 2.67078 28.2557 2.54988 28.56 2.54988H34.2975Z" fill="#00A6A6"/>
</g>
<path d="M44.3703 20.1449C44.3703 20.0773 44.3972 20.0124 44.445 19.9646C44.4928 19.9168 44.5577 19.8899 44.6253 19.8899H48.1953C48.263 19.8899 48.3278 19.9168 48.3756 19.9646C48.4235 20.0124 48.4503 20.0773 48.4503 20.1449C48.4503 20.2126 48.4235 20.2774 48.3756 20.3252C48.3278 20.3731 48.263 20.3999 48.1953 20.3999H44.6253C44.5577 20.3999 44.4928 20.3731 44.445 20.3252C44.3972 20.2774 44.3703 20.2126 44.3703 20.1449ZM47.1753 21.4199C47.1077 21.4199 47.0428 21.4468 46.995 21.4946C46.9472 21.5424 46.9203 21.6073 46.9203 21.6749C46.9203 21.7426 46.9472 21.8074 46.995 21.8552C47.0428 21.9031 47.1077 21.9299 47.1753 21.9299H48.1953C48.263 21.9299 48.3278 21.9031 48.3756 21.8552C48.4235 21.8074 48.4503 21.7426 48.4503 21.6749C48.4503 21.6073 48.4235 21.5424 48.3756 21.4946C48.3278 21.4468 48.263 21.4199 48.1953 21.4199H47.1753ZM46.9203 23.2049C46.9203 23.1373 46.9472 23.0724 46.995 23.0246C47.0428 22.9768 47.1077 22.9499 47.1753 22.9499H48.1953C48.263 22.9499 48.3278 22.9768 48.3756 23.0246C48.4235 23.0724 48.4503 23.1373 48.4503 23.2049C48.4503 23.2726 48.4235 23.3374 48.3756 23.3852C48.3278 23.4331 48.263 23.4599 48.1953 23.4599H47.1753C47.1077 23.4599 47.0428 23.4331 46.995 23.3852C46.9472 23.3374 46.9203 23.2726 46.9203 23.2049ZM44.6253 21.4199C44.5577 21.4199 44.4928 21.4468 44.445 21.4946C44.3972 21.5424 44.3703 21.6073 44.3703 21.6749V23.2049C44.3703 23.2726 44.3972 23.3374 44.445 23.3852C44.4928 23.4331 44.5577 23.4599 44.6253 23.4599H46.1553C46.223 23.4599 46.2878 23.4331 46.3356 23.3852C46.3835 23.3374 46.4103 23.2726 46.4103 23.2049V21.6749C46.4103 21.6073 46.3835 21.5424 46.3356 21.4946C46.2878 21.4468 46.223 21.4199 46.1553 21.4199H44.6253ZM44.8803 22.9499V21.9299H45.9003V22.9499H44.8803ZM42.8403 19.3799C42.8403 19.1094 42.9478 18.85 43.1391 18.6587C43.3304 18.4674 43.5898 18.3599 43.8603 18.3599H48.9603C49.2309 18.3599 49.4903 18.4674 49.6816 18.6587C49.8729 18.85 49.9803 19.1094 49.9803 19.3799V19.8899C50.2509 19.8899 50.5103 19.9974 50.7016 20.1887C50.8929 20.38 51.0003 20.6394 51.0003 20.9099V23.7149C51.0003 24.0531 50.866 24.3774 50.6269 24.6165C50.3878 24.8556 50.0635 24.9899 49.7253 24.9899H44.1153C43.7772 24.9899 43.4529 24.8556 43.2138 24.6165C42.9747 24.3774 42.8403 24.0531 42.8403 23.7149V19.3799ZM49.4703 19.3799C49.4703 19.2447 49.4166 19.1149 49.321 19.0193C49.2253 18.9237 49.0956 18.8699 48.9603 18.8699H43.8603C43.7251 18.8699 43.5954 18.9237 43.4997 19.0193C43.4041 19.1149 43.3503 19.2447 43.3503 19.3799V23.7149C43.3503 23.9178 43.4309 24.1124 43.5744 24.2559C43.7179 24.3993 43.9124 24.4799 44.1153 24.4799H49.7253C49.9282 24.4799 50.1228 24.3993 50.2663 24.2559C50.4097 24.1124 50.4903 23.9178 50.4903 23.7149V20.9099C50.4903 20.7747 50.4366 20.6449 50.341 20.5493C50.2453 20.4537 50.1156 20.3999 49.9803 20.3999V23.7149C49.9803 23.7826 49.9535 23.8474 49.9056 23.8952C49.8578 23.9431 49.793 23.9699 49.7253 23.9699C49.6577 23.9699 49.5928 23.9431 49.545 23.8952C49.4972 23.8474 49.4703 23.7826 49.4703 23.7149V19.3799Z" fill="#00A6A6"/>
</g>
<defs>
<clipPath id="clip0_414_30">
<rect width="51" height="51" rx="25.5" fill="white"/>
</clipPath>
<clipPath id="clip1_414_30">
<rect width="18.36" height="18.36" fill="white" transform="translate(0 7.14001)"/>
</clipPath>
<clipPath id="clip2_414_30">
<rect width="27.54" height="27.54" fill="white" transform="translate(19.3799 -6.63)"/>
</clipPath>
</defs>
</svg>
