<svg width="45" height="45" viewBox="0 0 45 45" fill="none" xmlns="http://www.w3.org/2000/svg">
<g clip-path="url(#clip0_414_46)">
<circle cx="22.5" cy="22.5" r="22.5" fill="white"/>
<path d="M36.7582 43.9596C36.6556 43.9308 34.2188 43.2428 32.3126 43.2428C31.6655 43.2428 31.1561 43.3197 30.757 43.4786C30.1589 43.7166 29.699 44.0411 29.3435 44.4029C29.4155 43.6968 29.4704 42.9894 29.4961 42.2816C29.5879 41.9666 29.6347 41.5764 29.5123 41.1633C29.5138 40.6429 29.5022 40.1226 29.4776 39.6027C29.8385 39.7112 30.6598 39.9227 31.6057 39.9227C32.6623 39.9227 33.5533 39.6635 34.2548 39.1518C35.6341 38.1461 35.5571 35.4771 35.5436 35.1756L35.5238 34.7337L35.0401 34.7558C34.6045 34.776 30.7403 34.9799 29.4286 35.9361C29.3165 36.018 29.2171 36.1026 29.123 36.1895C29.0909 35.983 29.0573 35.7767 29.0222 35.5707C29.1829 35.343 29.3273 35.0496 29.3503 34.6946C29.3836 34.1937 29.1599 33.7118 28.7072 33.26C28.9583 33.3396 29.6153 33.521 30.3812 33.521C31.2002 33.521 31.8923 33.3171 32.4391 32.9144C33.5159 32.1206 33.4556 30.0546 33.4448 29.8215L33.4255 29.3792L32.9422 29.4012C32.6114 29.4165 29.6828 29.5713 28.6708 30.3156C28.3333 30.5645 28.1069 30.8471 27.9751 31.1549C27.871 30.8283 27.7622 30.5032 27.6488 30.1797C27.7622 30.1464 28.4111 29.9313 28.7225 29.3567C28.8602 29.1029 28.9772 28.6821 28.7545 28.1183C28.4093 27.2448 26.6453 26.1162 26.2952 25.8989L25.8956 25.65L25.6274 26.0186C25.5154 26.1729 24.5434 27.554 24.9241 28.5188C25.4407 29.8265 27.1808 30.159 27.3892 30.1946C27.6241 31.0338 27.8347 31.8776 28.0021 32.7276L28.0061 32.7515C26.6759 32.036 24.3238 31.5374 24.016 31.4744L23.5142 31.3713L23.4373 31.8362C23.3981 32.0742 23.084 34.191 24.1699 35.1842C25.1144 36.0491 26.432 36.2304 27.3712 36.2304C27.9229 36.2304 28.3103 36.1661 28.3265 36.1638L28.4431 36.144L28.4786 36.1184C28.5052 36.4019 28.5259 36.6849 28.5461 36.968C28.462 37.1579 28.4071 37.355 28.3877 37.5606C28.3472 37.998 28.4678 38.3913 28.6199 38.7059C28.6231 38.9093 28.6357 39.1127 28.6348 39.3161C28.6343 39.5469 28.6235 39.7773 28.615 40.0082C28.4073 39.8671 28.1865 39.7464 27.9557 39.6477C27.3185 39.3732 26.2727 39.2396 24.7589 39.2396C23.1956 39.2396 21.7309 39.3863 21.6692 39.3926L21.1499 39.4452L21.2516 39.9141C21.2764 40.0302 21.8875 42.7689 23.6411 43.524C24.245 43.785 24.9241 43.9169 25.6594 43.9169C26.7398 43.9169 27.724 43.6338 28.3418 43.4061C27.9377 46.4036 27.1079 49.3407 25.8385 52.1028L27.391 52.65C27.999 51.065 28.4786 49.4335 28.8251 47.7716C29.3512 48.1874 30.3263 48.7872 31.5841 48.7872C32.1015 48.7854 32.6139 48.685 33.0938 48.4916C34.8457 47.795 36.9355 44.7395 37.0232 44.6099L37.3499 44.1284L36.7582 43.9596" fill="#00A6A6"/>
<path fill-rule="evenodd" clip-rule="evenodd" d="M42.754 18.8506C42.754 19.9117 42.3325 20.9293 41.5822 21.6796C40.8319 22.4299 39.8143 22.8514 38.7532 22.8514C37.6921 22.8514 36.6745 22.4299 35.9242 21.6796C35.1739 20.9293 34.7524 19.9117 34.7524 18.8506C34.7524 17.7896 35.1739 16.7719 35.9242 16.0217C36.6745 15.2714 37.6921 14.8499 38.7532 14.8499C39.8143 14.8499 40.8319 15.2714 41.5822 16.0217C42.3325 16.7719 42.754 17.7896 42.754 18.8506V18.8506ZM40.8946 19.3432C40.8648 19.4724 40.785 19.5844 40.6727 19.6547C40.5603 19.7251 40.4247 19.7479 40.2955 19.7183L36.9869 18.9581C36.8576 18.9284 36.7453 18.8486 36.6749 18.7361C36.6045 18.6237 36.5816 18.4878 36.6113 18.3585C36.641 18.2292 36.7209 18.117 36.8333 18.0466C36.9458 17.9761 37.0816 17.9532 37.2109 17.983L40.5196 18.7436C40.5836 18.7583 40.644 18.7856 40.6975 18.8237C40.751 18.8618 40.7965 18.9101 40.8313 18.9657C40.8661 19.0214 40.8896 19.0834 40.9005 19.1482C40.9114 19.2129 40.9094 19.2792 40.8946 19.3432V19.3432Z" fill="#00A6A6"/>
<path d="M30.1406 16.4728C29.817 15.7066 28.7338 15.6296 28.2992 16.3413L24.8965 21.9088C24.504 22.551 24.9426 23.3711 25.7082 23.4256L31.6423 23.8487C32.4075 23.9037 32.9646 23.1546 32.6725 22.4634L30.1406 16.4728Z" fill="#00A6A6"/>
<path fill-rule="evenodd" clip-rule="evenodd" d="M39.4459 30.0328C40.1673 29.6965 40.7255 29.0874 40.9977 28.3396C41.27 27.5917 41.234 26.7664 40.8977 26.045C40.7312 25.6879 40.496 25.367 40.2054 25.1007C39.9149 24.8345 39.5748 24.6281 39.2045 24.4932C38.4566 24.221 37.6313 24.257 36.9099 24.5933L31.4709 27.1297C31.1138 27.2963 30.7929 27.5315 30.5267 27.822C30.2605 28.1125 30.0541 28.4526 29.9193 28.8229C29.7845 29.1932 29.724 29.5864 29.7411 29.98C29.7583 30.3737 29.8528 30.7601 30.0194 31.1173C30.1859 31.4744 30.4211 31.7952 30.7116 32.0615C31.0021 32.3277 31.3422 32.5341 31.7125 32.6689C32.0828 32.8037 32.476 32.8642 32.8696 32.847C33.2633 32.8298 33.6497 32.7353 34.0069 32.5688L39.4459 30.0323V30.0328ZM36.7244 30.1978L39.0233 29.1261C39.4988 28.8986 39.8653 28.4926 40.043 27.9964C40.2208 27.5002 40.1956 26.9539 39.9728 26.4762C39.7501 25.9985 39.3478 25.6281 38.8534 25.4453C38.359 25.2626 37.8124 25.2824 37.3325 25.5004L35.0336 26.5721L36.7239 30.1978H36.7244Z" fill="#00A6A6"/>
<path d="M19.8795 -0.900024C19.1195 -0.881194 18.299 -0.801162 17.5323 -0.653206C16.4563 -0.446066 15.4878 -0.0929874 14.9834 0.280267C14.9364 0.428897 14.9229 0.632673 14.9296 0.770542C14.9296 0.911774 14.9498 1.06511 14.9767 1.21979C15.8712 0.553315 16.9674 0.171317 18.0771 -0.189832C17.1154 0.487407 16.2881 1.19894 15.508 1.92797C16.0528 2.16806 16.6984 2.17142 17.1154 1.87618H17.1221C18.0233 1.22786 19.2271 0.143743 19.8795 -0.898007V-0.900024ZM-0.155231 -0.658586C-0.336814 -0.658586 -0.531849 -0.63841 -0.733608 -0.59335C-0.868114 0.0650573 -0.787411 0.664282 -0.538574 1.14111C-1.14385 0.903031 -1.87018 0.94271 -2.60997 1.56211C-2.15937 3.0975 -0.80086 3.78146 0.598004 3.08808C0.638356 3.72295 0.658532 4.3632 0.658532 5.00211C0.221387 4.52461 -0.498222 4.09083 -1.24473 4.111C-1.76931 4.13118 -2.31406 4.36993 -2.79155 4.9752C-2.03832 6.38752 -0.5722 6.77759 0.651806 5.82259C0.638355 6.5153 0.604729 7.20801 0.550926 7.90744C0.140683 7.34251 -0.592376 6.80449 -1.40614 6.81121C-1.76931 6.81794 -2.14592 6.93227 -2.52254 7.20128C-1.44649 7.50392 -0.464595 7.93434 0.41642 8.51272C0.74596 8.7212 0.914092 9.04402 1.00825 9.36011C1.09568 9.6762 1.11585 10.0057 1.10913 10.342C1.08222 11.028 0.920818 11.7476 0.678707 12.3596L0.591279 12.5614L0.396245 12.6622C0.261739 12.7362 0.107057 12.8102 -0.0408999 12.8842C-0.182131 13.745 -0.336815 14.6126 -0.504948 15.4869C-1.50029 14.2763 -2.50236 13.8324 -3.49098 13.8257C-6.01903 13.7988 -8.49192 16.5965 -10.8 16.6436C-7.6748 16.8656 -2.81173 13.6778 -1.11695 17.4238C0.140684 18.3586 1.43194 19.1185 2.7501 19.6969C2.85771 19.0647 3.03257 18.3989 3.27468 17.8071C3.42936 17.4305 3.60422 17.0808 3.82615 16.7848C4.04809 16.4889 4.3171 16.2199 4.72734 16.119C4.84167 16.0854 4.96273 16.0585 5.07706 16.0316C4.71389 15.3255 4.76097 14.3772 5.19139 13.5836C5.62853 12.7698 6.42212 12.2049 7.23588 12.1444C8.06982 10.8733 8.94411 9.63584 9.86548 8.41856C10.5784 9.93176 12.1521 10.2075 13.4501 9.15162C13.1205 7.93434 12.2395 7.551 11.3988 7.57117C11.0222 7.5779 10.6523 7.67205 10.3363 7.80656C11.6611 6.09161 13.0802 4.44391 14.6001 2.84597C14.0486 2.60252 14.0083 2.41892 13.867 1.86341C12.3202 3.47681 10.8743 5.15679 9.52249 6.88519C9.48886 7.95452 8.88358 8.91624 7.86134 9.11799H7.84789C7.19553 10.0326 6.56335 10.954 5.95807 11.8955C6.11276 10.8935 6.26744 9.8645 6.45575 8.84226C5.98497 8.54634 5.60836 8.04867 5.39987 7.47029C4.76097 9.52151 4.30365 11.7005 3.71182 13.5836C3.63112 13.5701 3.54369 13.5634 3.46298 13.5634C2.40039 13.5567 1.46557 14.4781 1.22346 15.1708C2.03722 15.8702 2.93168 16.0047 3.66474 15.6819C3.38901 16.1728 3.10654 16.6705 2.83753 17.1682C2.59542 17.0606 2.34658 17.0068 2.1112 17.0068C1.34451 17.0001 0.645081 17.4843 0.221387 18.0089C0.685433 15.803 1.1024 13.5971 1.40504 11.3979C2.6425 12.0233 3.92703 11.4719 4.49868 10.0797C4.01446 9.57532 3.50334 9.37356 3.01912 9.36683C2.48782 9.36011 1.98342 9.59549 1.58662 9.91158C1.67405 9.15162 1.74131 8.39166 1.78838 7.6317C3.05274 8.87588 4.68699 8.53962 5.49403 7.0197C5.01653 6.41442 4.47178 6.17904 3.94721 6.15886C3.03257 6.13196 2.17173 6.78431 1.80183 7.37614C1.84219 6.65653 1.86909 5.94365 1.86909 5.23077C3.24778 5.8764 4.57266 5.19041 5.01653 3.6705C4.53231 3.26496 4.05481 3.10826 3.61767 3.11498C2.89133 3.12575 2.25915 3.58239 1.85564 4.10428C1.84219 3.63014 1.81528 3.15601 1.78166 2.68322C3.35538 3.20174 4.62646 2.26222 4.77442 0.611152C3.44281 -0.123924 2.42056 0.561385 1.88926 1.40743C1.76821 0.459833 1.14948 -0.657241 -0.155231 -0.658586V-0.658586ZM11.8158 0.277577C9.3409 0.66899 7.80081 2.17949 6.72476 4.17826L6.88617 4.1379C7.24261 4.07065 7.5856 4.10428 7.89496 4.21861C8.71545 2.61731 9.92601 1.23324 11.8158 0.277577V0.277577ZM20.7 4.56496C17.5122 9.13145 13.2483 11.0751 9.05844 13.1868C9.41488 13.893 9.3678 14.8211 8.94411 15.6079V15.6146C13.3694 12.8707 17.8753 10.268 20.7 4.56496V4.56496ZM14.6673 4.86087C13.6047 4.84742 12.6699 5.78224 12.4278 6.46822C13.8334 7.67878 15.4744 7.20128 16.1469 5.57376C15.6627 5.06936 15.1516 4.8676 14.6673 4.86087V4.86087ZM7.20226 5.3182C7.17535 5.32492 7.14845 5.32492 7.12155 5.33165C6.69786 5.41235 6.31452 6.0109 6.4692 6.80449C6.62388 7.59808 7.20898 8.01504 7.62595 7.92761C8.04964 7.84691 8.43299 7.24836 8.27831 6.45477C8.13035 5.70826 7.61923 5.29802 7.20226 5.3182V5.3182ZM-6.55234 7.88726C-6.65255 7.88726 -6.75948 7.89399 -6.86104 7.89399C-6.22953 9.59549 -5.55027 11.0482 -4.11644 11.9224H-4.10971C-3.15472 12.5277 -2.01142 12.3596 -1.0228 11.983L-3.87433 9.62239L-0.316638 11.5055C-0.215758 10.9069 0.133957 10.1066 -0.22921 9.53496H-0.235935V9.52824C-1.88364 8.45891 -3.95503 7.90744 -6.55234 7.88726ZM7.36366 13.3549C6.99377 13.3684 6.54318 13.624 6.25399 14.1553C5.87064 14.8681 6.05895 15.5608 6.43557 15.7626C7.01395 16.0114 7.65958 15.4263 7.87479 15.0363C8.25813 14.3234 8.06982 13.6374 7.6932 13.4289C7.59905 13.3751 7.48472 13.3549 7.36366 13.3549ZM7.15518 17.0068C7.0543 17.0068 6.9467 17.0068 6.84582 17.0135C6.22709 17.0404 5.62181 17.1346 5.02998 17.2892H5.02326C5.02998 17.2892 4.92238 17.3363 4.7946 17.5112C4.66682 17.686 4.51886 17.9483 4.3978 18.2644C4.21622 18.7016 4.07499 19.2261 3.98083 19.7171L8.28503 19.0378L4.7946 20.4232C5.15776 20.9613 5.25864 21.1832 5.34607 21.58C5.90427 21.9364 6.4961 22.0978 7.24261 21.9163C9.09879 21.4791 10.5582 19.9659 12.0848 18.1837C10.3363 17.3834 8.70872 16.9933 7.15518 17.0068V17.0068ZM-2.07194 18.2106L-2.67722 19.7507C-0.478045 20.7192 1.39831 21.8423 3.19397 22.9721L4.03464 21.4522C1.88926 20.7931 -0.135055 19.6835 -2.07194 18.2106V18.2106ZM-2.91933 20.968C-4.32492 22.804 -6.01365 24.3979 -7.94381 25.3327L-7.41386 26.4222C-5.17231 25.3327 -3.31613 23.5236 -1.79621 21.4993C-2.15937 21.3177 -2.53599 21.1361 -2.91933 20.968V20.968ZM-1.55409 21.6203C-3.14127 24.4517 -4.66791 26.4693 -6.28535 29.4284L-5.21939 30.0068C-3.64567 27.1216 -2.12575 25.0973 -0.478045 22.1853C-0.827761 21.997 -1.19093 21.8087 -1.55409 21.6203ZM0.207935 22.5753C-1.44649 25.1108 -2.63014 27.1822 -3.80035 29.8588L-2.6974 30.3431C-1.54737 27.7202 -0.397343 25.7161 1.24363 23.1873C0.900642 22.9789 0.557651 22.7704 0.207935 22.5753ZM1.75476 23.4967C0.719059 25.2453 0.604729 27.3301 0.423146 28.9173L1.62025 29.0585C1.81528 27.431 1.96324 25.5479 2.78373 24.1423L1.75476 23.4967Z" fill="#00A6A6"/>
<path d="M13.1742 13.5002C11.5801 13.5002 10.1338 13.6651 9.13056 13.9162C8.62587 14.0418 8.23197 14.1938 8.0104 14.3255C7.93039 14.3735 7.90577 14.3982 7.88115 14.4234C7.90577 14.4486 7.93039 14.4732 8.0104 14.5212C8.23197 14.653 8.62587 14.805 9.13056 14.9305C10.1338 15.1816 11.5801 15.3466 13.1742 15.3466C14.7683 15.3466 16.2146 15.1816 17.2178 14.9305C17.7225 14.805 18.1164 14.653 18.338 14.5212C18.418 14.4732 18.4426 14.4486 18.4673 14.4234C18.4426 14.3982 18.418 14.3735 18.338 14.3255C18.1164 14.1938 17.7225 14.0418 17.2178 13.9162C16.2146 13.6651 14.7683 13.5002 13.1742 13.5002ZM7.8196 15.6623V18.1285C8.21966 18.3316 8.74281 18.5347 9.13056 18.6332C10.1338 18.8856 11.5801 19.0517 13.1742 19.0517C14.7683 19.0517 16.2146 18.8856 17.2178 18.6332C17.9564 18.4547 18.0426 18.4363 18.5288 18.1285V15.6623C18.2272 15.7953 17.8826 15.9067 17.4887 16.0051C16.35 16.2889 14.8421 16.4544 13.1742 16.4544C11.5063 16.4544 9.99837 16.2889 8.85975 16.0051C8.46585 15.9067 8.12119 15.7953 7.8196 15.6623V15.6623ZM8.34891 19.5687C7.83807 19.7472 7.33338 20.0673 6.92102 20.4796C6.26739 21.1259 5.8501 21.9937 5.8501 22.7938V26.7328C5.8501 27.0405 5.9855 27.3052 6.33386 27.6068C6.68098 27.9022 7.24106 28.1915 7.93039 28.4254C9.32135 28.887 11.2478 29.1331 13.1742 29.1331C15.0945 29.1331 17.027 28.887 18.418 28.4254C19.1073 28.1915 19.6674 27.9022 20.0121 27.6068C20.3629 27.3052 20.4983 27.0405 20.4983 26.7328V22.7938C20.4983 21.9937 20.0798 21.1259 19.4274 20.4796C19.015 20.0673 18.5165 19.7472 17.9995 19.5687C17.8395 19.618 17.6671 19.6672 17.4887 19.7103C16.35 19.9934 14.8421 20.1596 13.1742 20.1596C11.5063 20.1596 9.99837 19.9934 8.85975 19.7103C8.68126 19.6672 8.50893 19.618 8.34891 19.5687ZM5.8501 28.6346V32.6413C5.8501 32.9491 5.9855 33.2137 6.33386 33.5153C6.68098 33.8107 7.24106 34.1 7.93039 34.3339C9.32135 34.7955 11.2478 35.0417 13.1742 35.0417C15.0945 35.0417 17.027 34.7955 18.418 34.3339C19.1073 34.1 19.6674 33.8107 20.0121 33.5153C20.3629 33.2137 20.4983 32.9491 20.4983 32.6413V28.6346C20.0182 28.9793 19.4335 29.2501 18.7627 29.4717C17.1994 29.9948 15.1868 30.241 13.1742 30.241C11.1555 30.241 9.14902 29.9948 7.58573 29.4717C6.91486 29.2501 6.32709 28.9793 5.8501 28.6346V28.6346ZM5.8501 34.5431V38.5498C5.8501 38.8576 5.9855 39.1222 6.33386 39.4238C6.68098 39.7192 7.24106 40.0085 7.93039 40.2424C9.32135 40.704 11.2478 40.9502 13.1742 40.9502C14.2513 40.9502 15.3407 40.8702 16.3254 40.7225C16.1285 40.4455 16.0054 40.1316 16.0054 39.7746C16.0054 39.0484 16.5162 38.476 17.1563 38.119C17.544 37.8974 18.0056 37.7436 18.5103 37.6513C18.6457 37.1035 19.0889 36.6665 19.612 36.3711C19.8767 36.2234 20.1783 36.1003 20.4983 36.008V34.5431C20.0182 34.8878 19.4335 35.1586 18.7627 35.3802C17.1994 35.9033 15.1868 36.1495 13.1742 36.1495C11.1555 36.1495 9.14902 35.9033 7.58573 35.3802C6.91486 35.1586 6.32709 34.8878 5.8501 34.5431V34.5431ZM21.9693 36.925C21.2369 36.925 20.5783 37.0973 20.1536 37.3374C20.0121 37.4174 19.9075 37.4974 19.8213 37.5712C20.5968 37.6143 21.3107 37.8051 21.8708 38.119C22.2524 38.3344 22.5909 38.6237 22.794 38.9745C22.9787 38.5129 23.3726 38.1375 23.8403 37.879C23.9634 37.8113 24.0927 37.7497 24.2281 37.6882C24.1357 37.5774 23.9942 37.4543 23.7849 37.3374C23.3602 37.0973 22.7017 36.925 21.9693 36.925V36.925ZM26.1976 38.4329C25.4652 38.4329 24.8066 38.6052 24.3819 38.8453C23.9511 39.0853 23.7972 39.3438 23.7972 39.5346C23.7972 39.7254 23.9511 39.9839 24.3819 40.2239C24.8066 40.464 25.4652 40.6363 26.1976 40.6363C26.93 40.6363 27.5885 40.464 28.0132 40.2239C28.444 39.9839 28.5979 39.7254 28.5979 39.5346C28.5979 39.3438 28.444 39.0853 28.0132 38.8453C27.5885 38.6052 26.93 38.4329 26.1976 38.4329ZM19.5136 38.6729C18.7811 38.6729 18.1226 38.8453 17.6979 39.0853C17.2671 39.3253 17.1132 39.5838 17.1132 39.7746C17.1132 39.9654 17.2671 40.2239 17.6979 40.464C18.1226 40.704 18.7811 40.8763 19.5136 40.8763C20.246 40.8763 20.9045 40.704 21.3292 40.464C21.76 40.2239 21.9139 39.9654 21.9139 39.7746C21.9139 39.5838 21.76 39.3253 21.3292 39.0853C20.9045 38.8453 20.246 38.6729 19.5136 38.6729Z" fill="#00A6A6"/>
<path d="M21.8632 10.2797L21.5014 10.8703L22.0918 11.2306C24.6076 12.7722 27.9051 11.9919 29.4488 9.47153L29.4951 9.39612C31.2238 9.07548 33.0084 9.26012 34.6349 9.92791L33.8685 11.1748C33.0538 10.7185 32.0941 10.595 31.1904 10.8303C30.2867 11.0656 29.5091 11.6413 29.0203 12.437L27.1608 15.4644L27.7499 15.8264C28.5669 16.328 29.5497 16.4845 30.482 16.2615C31.4144 16.0385 32.22 15.4542 32.7216 14.6372L33.9939 12.5662C34.0057 12.5513 34.0168 12.5352 34.0269 12.5189L35.4266 10.2412C37.2205 10.8667 39.1561 10.9655 41.0044 10.5259L41.5312 10.4002L40.7327 11.6996C39.7339 11.1314 38.5535 10.9732 37.4404 11.2585C36.3273 11.5439 35.3685 12.2503 34.7662 13.2289L32.489 16.9432L33.0801 17.3047C35.1632 18.5791 37.89 17.9327 39.1679 15.8449L41.0521 12.7713C41.0665 12.754 41.0801 12.7355 41.0921 12.7156L42.6844 10.1249L44.4851 9.69447L44.2889 8.8845L42.2189 9.37742L41.0376 7.01347C41.0298 6.99853 41.0212 6.98406 41.0117 6.97014L39.6024 4.14785C39.3429 3.62707 38.9834 3.16253 38.5443 2.78077C38.1052 2.39901 37.5952 2.10752 37.0434 1.92294C36.4916 1.73836 35.9088 1.66432 35.3284 1.70505C34.748 1.74577 34.1813 1.90047 33.6607 2.16029L33.0416 2.46941L34.989 6.36686C35.5023 7.39705 36.3965 8.18695 37.4821 8.56921C38.5678 8.95147 39.7596 8.89607 40.8051 8.41474L41.3852 9.57635L40.8141 9.71223C39.2143 10.0899 37.5422 10.0289 35.9743 9.53552L34.9728 7.52203L34.974 7.52129L34.7789 7.13136L34.622 6.81553C34.6191 6.80998 34.6162 6.80448 34.6131 6.79904L33.3835 4.33718C32.491 2.55525 30.3226 1.82404 28.5368 2.71814L27.9187 3.02747L29.5068 6.20654L29.5079 6.20829C30.375 7.95803 32.4661 8.67861 34.2242 7.88909L34.8233 9.09599C33.0728 8.40674 31.1628 8.22736 29.3146 8.57861L29.2206 8.5212C26.6998 6.97293 23.4055 7.76105 21.8636 10.2803L21.8632 10.2797ZM27.7859 9.35486C27.7876 9.36285 27.7899 9.37072 27.7927 9.37841C27.2574 9.95086 26.5648 10.3522 25.8021 10.532C25.0393 10.7118 24.2403 10.662 23.5058 10.3888C24.0372 9.81284 24.7274 9.40722 25.4891 9.2232C26.2509 9.03917 27.0501 9.08499 27.7859 9.35486V9.35486ZM31.5432 13.9126C31.2968 14.314 30.9299 14.6272 30.4948 14.8076C30.0598 14.988 29.5789 15.0263 29.1207 14.917L30.1984 13.161C30.4448 12.7598 30.8118 12.4468 31.2469 12.2668C31.682 12.0869 32.1629 12.0492 32.6208 12.1591L31.5432 13.9126ZM37.9879 15.1229C37.6287 15.7084 37.0819 16.1552 36.4365 16.3903C35.7911 16.6255 35.0851 16.6352 34.4335 16.4179L35.9439 13.9549L35.9445 13.9545C36.3045 13.3697 36.8513 12.9235 37.4965 12.6882C38.1416 12.4528 38.8473 12.442 39.4993 12.6575L37.9881 15.1219L37.9875 15.1223L37.9879 15.1229ZM32.1462 4.95562L33.0673 6.8005C32.6025 6.8704 32.1276 6.79116 31.7107 6.57416C31.2938 6.35715 30.9564 6.01356 30.747 5.59276L30.7459 5.59101L29.8233 3.7438C30.2888 3.67566 30.7638 3.75616 31.1808 3.97382C31.5978 4.19148 31.9354 4.5352 32.1456 4.95599L32.1462 4.95562ZM39.6572 7.3557C38.988 7.51434 38.2847 7.44196 37.6618 7.15033C37.0388 6.85871 36.5328 6.36497 36.226 5.74937L34.9324 3.16012C35.6017 3.00148 36.3049 3.07386 36.9279 3.36549C37.5508 3.65712 38.0568 4.15085 38.3636 4.76645L39.6572 7.3557V7.3557Z" fill="#00A6A6"/>
</g>
<defs>
<clipPath id="clip0_414_46">
<rect width="45" height="45" rx="22.5" fill="white"/>
</clipPath>
</defs>
</svg>
