<svg width="23" height="23" viewBox="0 0 23 23" fill="none" xmlns="http://www.w3.org/2000/svg">
<path d="M10.6366 1.47751C11.0226 0.816882 11.9774 0.816883 12.3634 1.47751L15.3269 6.5489C15.468 6.79044 15.7039 6.96181 15.9773 7.02141L21.7162 8.27273C22.4638 8.43573 22.7588 9.34371 22.2498 9.915L18.3424 14.3006C18.1563 14.5095 18.0662 14.7868 18.094 15.0651L18.6774 20.9099C18.7534 21.6713 17.981 22.2324 17.2804 21.9249L11.9019 19.5639C11.6458 19.4515 11.3542 19.4515 11.0981 19.5639L5.71964 21.9249C5.01902 22.2324 4.24665 21.6713 4.32264 20.9099L4.906 15.0651C4.93379 14.7868 4.84369 14.5095 4.65759 14.3006L0.750183 9.915C0.241185 9.34371 0.536205 8.43573 1.28379 8.27273L7.02274 7.02141C7.29608 6.96181 7.53195 6.79044 7.6731 6.5489L10.6366 1.47751Z" fill="#FFC700"/>
</svg>
