<svg width="33" height="33" viewBox="0 0 33 33" fill="none" xmlns="http://www.w3.org/2000/svg">
<path d="M25.6546 1.61071L25.2019 0.682587L24.2758 1.13634C20.322 3.06477 18.6617 7.83637 20.5942 11.7964L20.652 11.915C19.6703 14.3456 18.0086 16.4417 15.866 17.9519L14.9121 15.9894C16.1385 15.3305 17.0624 14.2227 17.4905 12.8979C17.9186 11.5731 17.8176 10.1341 17.2086 8.88206L14.8914 4.11871L13.9643 4.56937C12.6791 5.19488 11.6951 6.3053 11.2286 7.65637C10.7621 9.00744 10.8515 10.4885 11.477 11.7737L13.062 15.0324C13.0713 15.0592 13.0826 15.0861 13.095 15.1118L14.8378 18.6965C12.6142 20.4511 10.9394 22.8058 10.0116 25.4821L9.74755 26.2452L8.75343 24.2002C10.268 23.3995 11.4124 22.042 11.9453 20.4138C12.4783 18.7856 12.358 17.014 11.61 15.4728L8.76374 9.63384L7.83561 10.0876C4.56449 11.686 3.19293 15.6326 4.79446 18.912L7.14983 23.7434C7.16015 23.7754 7.17252 23.8073 7.18799 23.8383L9.17005 27.9158L8.26874 30.5249L9.44436 30.9271L10.4828 27.9292L14.4016 28.3376C14.4266 28.3398 14.4518 28.3405 14.4769 28.3397L19.1546 28.8285C20.0173 28.9194 20.8895 28.8394 21.7213 28.5931C22.553 28.3467 23.3281 27.939 24.0023 27.393C24.6764 26.847 25.2363 26.1735 25.6501 25.4111C26.0638 24.6486 26.3233 23.8121 26.4136 22.9493L26.5208 21.9232L20.0601 21.2498C18.3535 21.07 16.6439 21.5616 15.2936 22.6206C13.9432 23.6795 13.0581 25.2225 12.8258 26.9227L10.9005 26.7216L11.1872 25.8946C11.9938 23.5804 13.41 21.5268 15.2864 19.9505L18.6204 20.3042V20.3062L19.267 20.3733L19.7899 20.429C19.7991 20.4298 19.8084 20.4305 19.8177 20.431L23.8984 20.8569C26.8539 21.1622 29.5104 19.0213 29.8167 16.0596L29.9229 15.0345L24.6532 14.4848H24.6501C21.7554 14.1734 19.1742 16.2256 18.7586 19.0687L16.7611 18.8553C19.0301 17.2063 20.7856 14.9483 21.8245 12.3429L21.972 12.2707C25.9382 10.3413 27.5861 5.56762 25.6536 1.61071H25.6546ZM22.0731 9.79884C22.0616 9.79463 22.0499 9.79118 22.038 9.78852C21.7469 8.65693 21.7971 7.46453 22.182 6.36135C22.567 5.25817 23.2697 4.29348 24.2016 3.58865C24.5001 4.71827 24.4573 5.91103 24.0785 7.01632C23.6996 8.12161 23.0018 9.08987 22.0731 9.79884V9.79884ZM13.3322 10.8724C13.0248 10.241 12.9248 9.52871 13.0465 8.83716C13.1682 8.1456 13.5053 7.51019 14.0097 7.02168L15.3545 9.78337C15.6616 10.4146 15.7611 11.1269 15.6389 11.8182C15.5166 12.5095 15.1788 13.1443 14.6738 13.632L13.3322 10.8724ZM6.64761 18.0066C6.19905 17.0859 6.07536 16.0405 6.29669 15.0405C6.51803 14.0406 7.07134 13.145 7.86655 12.4997L9.75374 16.372V16.3731C10.2006 17.2942 10.3236 18.3393 10.1028 19.339C9.88194 20.3388 9.33021 21.2348 8.53686 21.882L6.64865 18.0076V18.0066H6.64761ZM24.1118 18.8058L21.0542 18.4861C21.3386 17.8457 21.8187 17.3119 22.4256 16.9615C23.0324 16.6111 23.7347 16.4622 24.4315 16.536H24.4346L27.4964 16.8557C27.2092 17.4955 26.7275 18.0283 26.1198 18.3783C25.512 18.7283 24.8093 18.8775 24.1118 18.8047V18.8058ZM15.0771 26.3277C15.4137 25.3591 16.0681 24.5327 16.9338 23.9831C17.7995 23.4334 18.8257 23.1926 19.8456 23.3L24.1376 23.7475C23.801 24.7162 23.1466 25.5425 22.2809 26.0922C21.4151 26.6419 20.389 26.8826 19.3691 26.7753L15.0771 26.3277V26.3277Z" fill="#00A6A6"/>
</svg>
