<svg width="32" height="20" viewBox="0 0 32 20" fill="none" xmlns="http://www.w3.org/2000/svg">
<path d="M8.57143 0V14.2857C8.57143 15.8714 7.3 17.1429 5.71429 17.1429H4.28571C3.5 17.1429 2.85714 16.5 2.85714 15.7143V11.4286H0V15.7143C0 18.0857 1.91429 20 4.28571 20H5.71429C8.87143 20 11.4286 17.4429 11.4286 14.2857V0M31.4286 11.9714L29.6714 10.2143C29.1527 9.69316 28.536 9.27974 27.8569 8.9978C27.1778 8.71586 26.4496 8.57096 25.7143 8.57143H22.8571V11.4286H25.7143C26.4286 11.4286 27.1429 11.7143 27.6429 12.2286L28.1429 12.7286L26.4286 13.7143C25.7714 14.0857 25.0429 14.2857 24.2857 14.2857H22.8571C22.0571 14.2857 21.4286 13.6571 21.4286 12.8571V1.42857H18.5714V6.87143L17.6857 5.88571C16.7143 4.81429 15.1429 4.28571 13.7 4.28571H12.8571V7.14286H13.7C14.6143 7.14286 15.4857 7.5 16.1286 8.15714L18.5714 10.5857V12.8571C18.5714 14.4571 17.3143 15.7143 15.7143 15.7143H12.8571V18.5714H15.7143C17.6714 18.5714 19.2857 17.5714 20.2429 16.0571C20.5816 16.4067 20.9883 16.6834 21.4378 16.8701C21.8874 17.0568 22.3704 17.1496 22.8571 17.1429H24.2857C25.5429 17.1429 26.7714 16.8143 27.8571 16.1857L31.4286 14.1286V11.9714Z" fill="#00A6A6"/>
</svg>
