<svg width="31" height="20" viewBox="0 0 31 20" fill="none" xmlns="http://www.w3.org/2000/svg">
<path d="M8.45455 0V14.2857C8.45455 15.8714 7.20045 17.1429 5.63636 17.1429H4.22727C3.45227 17.1429 2.81818 16.5 2.81818 15.7143V11.4286H0V15.7143C0 18.0857 1.88818 20 4.22727 20H5.63636C8.75045 20 11.2727 17.4429 11.2727 14.2857V0M31 11.9714L29.2668 10.2143C28.7551 9.69316 28.1469 9.27974 27.477 8.9978C26.8071 8.71586 26.0889 8.57096 25.3636 8.57143H22.5455V11.4286H25.3636C26.0682 11.4286 26.7727 11.7143 27.2659 12.2286L27.7591 12.7286L26.0682 13.7143C25.42 14.0857 24.7014 14.2857 23.9545 14.2857H22.5455C21.7564 14.2857 21.1364 13.6571 21.1364 12.8571V1.42857H18.3182V6.87143L17.4445 5.88571C16.4864 4.81429 14.9364 4.28571 13.5132 4.28571H12.6818V7.14286H13.5132C14.415 7.14286 15.2745 7.5 15.9086 8.15714L18.3182 10.5857V12.8571C18.3182 14.4571 17.0782 15.7143 15.5 15.7143H12.6818V18.5714H15.5C17.4305 18.5714 19.0227 17.5714 19.9668 16.0571C20.301 16.4067 20.7021 16.6834 21.1455 16.8701C21.5889 17.0568 22.0653 17.1496 22.5455 17.1429H23.9545C25.1945 17.1429 26.4064 16.8143 27.4773 16.1857L31 14.1286V11.9714Z" fill="#D9D9D9"/>
</svg>
