<svg width="48" height="48" viewBox="0 0 48 48" fill="none" xmlns="http://www.w3.org/2000/svg">
<path d="M14.5403 20.0191C12.8523 17.9441 11.2683 17.4981 9.78629 18.6821C7.56329 20.4581 6.92529 26.6501 8.71329 32.1091C10.5023 37.5681 13.9803 45.0021 21.0023 45.0021C28.0233 45.0021 29.6843 37.5221 32.5483 33.0001C35.4133 28.4781 36.9283 24.1151 34.1213 18.6821" stroke="#00A6A6" stroke-width="4" stroke-linecap="round" stroke-linejoin="round"/>
<path d="M11.0001 18.0371C9.67809 16.0172 8.34473 14.0049 7.00008 12.0001C5.55408 9.85507 9.25108 7.08207 11.0001 8.96807C12.1661 10.2261 13.7151 12.0781 15.6471 14.5251" stroke="#00A6A6" stroke-width="4" stroke-linecap="round"/>
<path d="M15.0243 25.6401C14.5393 19.5761 14.9343 15.6281 16.2063 13.7951C18.1163 11.0451 21.6633 10.0031 25.0033 10.0031C26.9933 10.0031 28.8093 10.8501 30.4533 12.5441" stroke="#00A6A6" stroke-width="4" stroke-linecap="round" stroke-linejoin="round"/>
<path d="M42.6936 12.3267C43.2796 14.3627 42.3236 16.2237 39.3776 16.6447C36.4326 17.0657 34.2246 18.5467 32.6326 19.7927C31.0396 21.0387 28.1926 24.8187 27.6296 26.7157C27.0676 28.6137 23.8536 26.8687 22.9906 26.1107C22.1276 25.3537 21.2786 23.6947 22.9906 21.9597C24.7026 20.2247 24.3316 19.8787 24.3316 18.1197C24.3316 16.3597 33.6936 10.5397 38.9666 10.0077C40.1386 9.93972 42.1086 10.2897 42.6936 12.3267Z" stroke="#00A6A6" stroke-width="4"/>
<path d="M23.0078 4.00004V9.26304M20.3068 10.718C17.2888 6.92504 14.8558 4.80804 13.0068 4.36804M17.0038 7.02904L17.9938 2.96204M35.6128 10.717C35.2908 11.822 35.2908 12.857 35.6128 13.824C35.9348 14.791 36.6258 15.826 37.6838 16.931" stroke="#00A6A6" stroke-width="4" stroke-linecap="round"/>
</svg>
