<svg width="47" height="47" viewBox="0 0 47 47" fill="none" xmlns="http://www.w3.org/2000/svg">
<path d="M27.4165 37.2083C34.8014 37.2083 38.4948 37.2083 40.788 34.9132C43.0832 32.62 43.0832 28.9265 43.0832 21.5417C43.0832 14.1568 43.0832 10.4634 40.788 8.17017C38.4948 5.875 34.8014 5.875 27.4165 5.875H19.5832C12.1983 5.875 8.50488 5.875 6.21167 8.17017C3.9165 10.4634 3.9165 14.1568 3.9165 21.5417C3.9165 28.9265 3.9165 32.62 6.21167 34.9132C7.49046 36.1939 9.204 36.7599 11.7498 37.0086" stroke="white" stroke-width="3.91667" stroke-linecap="round" stroke-linejoin="round"/>
<path d="M23.5001 21.5417V21.5613M15.6668 21.5417V21.5613M31.3334 21.5417V21.5613M27.4168 37.2084C24.9963 37.2084 22.329 38.1875 19.8948 39.4506C15.9821 41.4814 14.0257 42.4978 13.0622 41.8496C12.0987 41.2034 12.2808 39.1961 12.647 35.1834L12.7293 34.2709" stroke="white" stroke-width="3.91667" stroke-linecap="round"/>
</svg>
