<svg width="93" height="93" viewBox="0 0 93 93" fill="none" xmlns="http://www.w3.org/2000/svg">
<rect width="93" height="93" rx="12" fill="#00BEBE"/>
<path d="M33.868 74.14H30.22L29.548 76H28.396L31.42 67.684H32.68L35.692 76H34.54L33.868 74.14ZM33.556 73.252L32.044 69.028L30.532 73.252H33.556ZM38.1019 70.492C38.2939 70.116 38.5659 69.824 38.9179 69.616C39.2779 69.408 39.7139 69.304 40.2259 69.304V70.432H39.9379C38.7139 70.432 38.1019 71.096 38.1019 72.424V76H37.0099V69.424H38.1019V70.492ZM42.8185 70.324V74.2C42.8185 74.52 42.8865 74.748 43.0225 74.884C43.1585 75.012 43.3945 75.076 43.7305 75.076H44.5345V76H43.5505C42.9425 76 42.4865 75.86 42.1825 75.58C41.8785 75.3 41.7265 74.84 41.7265 74.2V70.324H40.8745V69.424H41.7265V67.768H42.8185V69.424H44.5345V70.324H42.8185ZM46.4216 68.356C46.2136 68.356 46.0376 68.284 45.8936 68.14C45.7496 67.996 45.6776 67.82 45.6776 67.612C45.6776 67.404 45.7496 67.228 45.8936 67.084C46.0376 66.94 46.2136 66.868 46.4216 66.868C46.6216 66.868 46.7896 66.94 46.9256 67.084C47.0696 67.228 47.1416 67.404 47.1416 67.612C47.1416 67.82 47.0696 67.996 46.9256 68.14C46.7896 68.284 46.6216 68.356 46.4216 68.356ZM46.9496 69.424V76H45.8576V69.424H46.9496ZM52.4827 76L49.9027 73.096V76H48.8107V67.12H49.9027V72.34L52.4347 69.424H53.9587L50.8627 72.7L53.9707 76H52.4827ZM60.9865 72.46C60.9865 72.668 60.9745 72.888 60.9505 73.12H55.6945C55.7345 73.768 55.9545 74.276 56.3545 74.644C56.7625 75.004 57.2545 75.184 57.8305 75.184C58.3025 75.184 58.6945 75.076 59.0065 74.86C59.3265 74.636 59.5505 74.34 59.6785 73.972H60.8545C60.6785 74.604 60.3265 75.12 59.7985 75.52C59.2705 75.912 58.6145 76.108 57.8305 76.108C57.2065 76.108 56.6465 75.968 56.1505 75.688C55.6625 75.408 55.2785 75.012 54.9985 74.5C54.7185 73.98 54.5785 73.38 54.5785 72.7C54.5785 72.02 54.7145 71.424 54.9865 70.912C55.2585 70.4 55.6385 70.008 56.1265 69.736C56.6225 69.456 57.1905 69.316 57.8305 69.316C58.4545 69.316 59.0065 69.452 59.4865 69.724C59.9665 69.996 60.3345 70.372 60.5905 70.852C60.8545 71.324 60.9865 71.86 60.9865 72.46ZM59.8585 72.232C59.8585 71.816 59.7665 71.46 59.5825 71.164C59.3985 70.86 59.1465 70.632 58.8265 70.48C58.5145 70.32 58.1665 70.24 57.7825 70.24C57.2305 70.24 56.7585 70.416 56.3665 70.768C55.9825 71.12 55.7625 71.608 55.7065 72.232H59.8585ZM63.5199 67.12V76H62.4279V67.12H63.5199Z" fill="white"/>
<path d="M63.0624 54.4285H29.9374C28.3661 54.4286 26.8543 53.8274 25.7121 52.7483C24.57 51.6691 23.8841 50.1938 23.7951 48.625L23.7856 48.2767V20.8303C23.7855 19.7511 24.1951 18.7121 24.9315 17.9233C25.668 17.1345 26.6764 16.6547 27.7531 16.5808L28.0446 16.5714H57.3839C58.463 16.5712 59.502 16.9808 60.2908 17.7172C61.0796 18.4537 61.5595 19.4621 61.6333 20.5388L61.6428 20.8303V22.2499H64.9553C66.0345 22.2498 67.0734 22.6593 67.8622 23.3958C68.6511 24.1323 69.1309 25.1407 69.2048 26.2174L69.2142 26.5089V48.2767C69.2143 49.848 68.6131 51.3598 67.534 52.502C66.4548 53.6442 64.9795 54.3301 63.4107 54.419L63.0624 54.4285H29.9374H63.0624ZM29.9374 51.5892H63.0624C63.8941 51.5891 64.6952 51.2763 65.3068 50.7127C65.9184 50.1492 66.2956 49.3762 66.3636 48.5474L66.3749 48.2767V26.5089C66.3749 26.1658 66.2507 25.8343 66.0252 25.5758C65.7997 25.3173 65.4882 25.1491 65.1484 25.1025L64.9553 25.0892H61.6428V45.4374C61.6428 45.7805 61.5185 46.1119 61.293 46.3705C61.0676 46.629 60.7561 46.7972 60.4162 46.8438L60.2231 46.8571C59.8801 46.857 59.5486 46.7328 59.2901 46.5073C59.0316 46.2818 58.8634 45.9704 58.8167 45.6305L58.8035 45.4374V20.8303C58.8035 20.4872 58.6792 20.1558 58.4538 19.8972C58.2283 19.6387 57.9168 19.4705 57.5769 19.4239L57.3839 19.4106H28.0446C27.7015 19.4107 27.3701 19.5349 27.1115 19.7604C26.853 19.9859 26.6848 20.2973 26.6382 20.6372L26.6249 20.8303V48.2767C26.625 49.108 26.9376 49.909 27.5007 50.5205C28.0639 51.132 28.8364 51.5094 29.6649 51.5779L29.9374 51.5892H63.0624H29.9374ZM39.3941 33.6146C40.7002 33.6146 41.7602 34.6746 41.7602 35.9807V42.5981C41.7602 43.9042 40.7002 44.9642 39.3941 44.9642H32.7767C31.4706 44.9642 30.4106 43.9042 30.4106 42.5981V35.9807C30.4106 34.6746 31.4706 33.6146 32.7767 33.6146H39.3941ZM46.9731 42.1249H53.5906C53.9503 42.125 54.2965 42.2617 54.5593 42.5072C54.8221 42.7528 54.982 43.0889 55.0065 43.4478C55.031 43.8067 54.9184 44.1614 54.6914 44.4405C54.4644 44.7195 54.14 44.9019 53.7836 44.951L53.5906 44.9642H46.9731C46.6135 44.9641 46.2672 44.8275 46.0044 44.5819C45.7416 44.3363 45.5818 44.0002 45.5572 43.6413C45.5327 43.2825 45.6453 42.9277 45.8723 42.6487C46.0993 42.3697 46.4237 42.1872 46.7801 42.1382L46.9731 42.1249H53.5906H46.9731ZM38.9228 36.4539H33.2499V42.1249H38.9228V36.4539ZM46.9731 33.6146H53.5906C53.9503 33.6147 54.2965 33.7514 54.5593 33.9969C54.8221 34.2425 54.982 34.5787 55.0065 34.9375C55.031 35.2964 54.9184 35.6511 54.6914 35.9302C54.4644 36.2092 54.14 36.3916 53.7836 36.4407L53.5906 36.4539H46.9731C46.6109 36.4576 46.2609 36.3227 45.9949 36.0767C45.729 35.8308 45.567 35.4925 45.5424 35.1311C45.5177 34.7696 45.6321 34.4124 45.8622 34.1326C46.0923 33.8528 46.4207 33.6716 46.7801 33.626L46.9731 33.6146H53.5906H46.9731ZM31.8227 25.0835H53.5906C53.9503 25.0836 54.2965 25.2203 54.5593 25.4658C54.8221 25.7114 54.982 26.0476 55.0065 26.4064C55.031 26.7653 54.9184 27.12 54.6914 27.3991C54.4644 27.6781 54.14 27.8605 53.7836 27.9096L53.5906 27.9228H31.8227C31.4632 27.9222 31.1173 27.7853 30.8548 27.5395C30.5924 27.2938 30.4329 26.9577 30.4086 26.599C30.3844 26.2403 30.4971 25.8857 30.7241 25.6069C30.9511 25.3281 31.2754 25.1458 31.6315 25.0968L31.8227 25.0835H53.5906H31.8227Z" fill="white"/>
</svg>
