<svg width="93" height="93" viewBox="0 0 93 93" fill="none" xmlns="http://www.w3.org/2000/svg">
<rect width="93" height="93" rx="12" fill="#00BEBE"/>
<path d="M20.368 73.636V82H19.276V78.208H15.016V82H13.924V73.636H15.016V77.308H19.276V73.636H20.368ZM28.2326 78.46C28.2326 78.668 28.2206 78.888 28.1966 79.12H22.9406C22.9806 79.768 23.2006 80.276 23.6006 80.644C24.0086 81.004 24.5006 81.184 25.0766 81.184C25.5486 81.184 25.9406 81.076 26.2526 80.86C26.5726 80.636 26.7966 80.34 26.9246 79.972H28.1006C27.9246 80.604 27.5726 81.12 27.0446 81.52C26.5166 81.912 25.8606 82.108 25.0766 82.108C24.4526 82.108 23.8926 81.968 23.3966 81.688C22.9086 81.408 22.5246 81.012 22.2446 80.5C21.9646 79.98 21.8246 79.38 21.8246 78.7C21.8246 78.02 21.9606 77.424 22.2326 76.912C22.5046 76.4 22.8846 76.008 23.3726 75.736C23.8686 75.456 24.4366 75.316 25.0766 75.316C25.7006 75.316 26.2526 75.452 26.7326 75.724C27.2126 75.996 27.5806 76.372 27.8366 76.852C28.1006 77.324 28.2326 77.86 28.2326 78.46ZM27.1046 78.232C27.1046 77.816 27.0126 77.46 26.8286 77.164C26.6446 76.86 26.3926 76.632 26.0726 76.48C25.7606 76.32 25.4126 76.24 25.0286 76.24C24.4766 76.24 24.0046 76.416 23.6126 76.768C23.2286 77.12 23.0086 77.608 22.9526 78.232H27.1046ZM30.766 76.492C30.958 76.116 31.23 75.824 31.582 75.616C31.942 75.408 32.378 75.304 32.89 75.304V76.432H32.602C31.378 76.432 30.766 77.096 30.766 78.424V82H29.674V75.424H30.766V76.492ZM35.2426 76.648C35.4666 76.256 35.7946 75.936 36.2266 75.688C36.6586 75.44 37.1506 75.316 37.7026 75.316C38.2946 75.316 38.8266 75.456 39.2986 75.736C39.7706 76.016 40.1426 76.412 40.4146 76.924C40.6866 77.428 40.8226 78.016 40.8226 78.688C40.8226 79.352 40.6866 79.944 40.4146 80.464C40.1426 80.984 39.7666 81.388 39.2866 81.676C38.8146 81.964 38.2866 82.108 37.7026 82.108C37.1346 82.108 36.6346 81.984 36.2026 81.736C35.7786 81.488 35.4586 81.172 35.2426 80.788V82H34.1506V73.12H35.2426V76.648ZM39.7066 78.688C39.7066 78.192 39.6066 77.76 39.4066 77.392C39.2066 77.024 38.9346 76.744 38.5906 76.552C38.2546 76.36 37.8826 76.264 37.4746 76.264C37.0746 76.264 36.7026 76.364 36.3586 76.564C36.0226 76.756 35.7506 77.04 35.5426 77.416C35.3426 77.784 35.2426 78.212 35.2426 78.7C35.2426 79.196 35.3426 79.632 35.5426 80.008C35.7506 80.376 36.0226 80.66 36.3586 80.86C36.7026 81.052 37.0746 81.148 37.4746 81.148C37.8826 81.148 38.2546 81.052 38.5906 80.86C38.9346 80.66 39.2066 80.376 39.4066 80.008C39.6066 79.632 39.7066 79.192 39.7066 78.688ZM41.8519 78.688C41.8519 78.016 41.9879 77.428 42.2599 76.924C42.5319 76.412 42.9039 76.016 43.3759 75.736C43.8559 75.456 44.3879 75.316 44.9719 75.316C45.5479 75.316 46.0479 75.44 46.4719 75.688C46.8959 75.936 47.2119 76.248 47.4199 76.624V75.424H48.5239V82H47.4199V80.776C47.2039 81.16 46.8799 81.48 46.4479 81.736C46.0239 81.984 45.5279 82.108 44.9599 82.108C44.3759 82.108 43.8479 81.964 43.3759 81.676C42.9039 81.388 42.5319 80.984 42.2599 80.464C41.9879 79.944 41.8519 79.352 41.8519 78.688ZM47.4199 78.7C47.4199 78.204 47.3199 77.772 47.1199 77.404C46.9199 77.036 46.6479 76.756 46.3039 76.564C45.9679 76.364 45.5959 76.264 45.1879 76.264C44.7799 76.264 44.4079 76.36 44.0719 76.552C43.7359 76.744 43.4679 77.024 43.2679 77.392C43.0679 77.76 42.9679 78.192 42.9679 78.688C42.9679 79.192 43.0679 79.632 43.2679 80.008C43.4679 80.376 43.7359 80.66 44.0719 80.86C44.4079 81.052 44.7799 81.148 45.1879 81.148C45.5959 81.148 45.9679 81.052 46.3039 80.86C46.6479 80.66 46.9199 80.376 47.1199 80.008C47.3199 79.632 47.4199 79.196 47.4199 78.7ZM51.4613 73.12V82H50.3693V73.12H51.4613ZM62.5217 78.46C62.5217 78.668 62.5097 78.888 62.4857 79.12H57.2297C57.2697 79.768 57.4897 80.276 57.8897 80.644C58.2977 81.004 58.7897 81.184 59.3657 81.184C59.8377 81.184 60.2297 81.076 60.5417 80.86C60.8617 80.636 61.0857 80.34 61.2137 79.972H62.3897C62.2137 80.604 61.8617 81.12 61.3337 81.52C60.8057 81.912 60.1497 82.108 59.3657 82.108C58.7417 82.108 58.1817 81.968 57.6857 81.688C57.1977 81.408 56.8137 81.012 56.5337 80.5C56.2537 79.98 56.1137 79.38 56.1137 78.7C56.1137 78.02 56.2497 77.424 56.5217 76.912C56.7937 76.4 57.1737 76.008 57.6617 75.736C58.1577 75.456 58.7257 75.316 59.3657 75.316C59.9897 75.316 60.5417 75.452 61.0217 75.724C61.5017 75.996 61.8697 76.372 62.1257 76.852C62.3897 77.324 62.5217 77.86 62.5217 78.46ZM61.3937 78.232C61.3937 77.816 61.3017 77.46 61.1177 77.164C60.9337 76.86 60.6817 76.632 60.3617 76.48C60.0497 76.32 59.7017 76.24 59.3177 76.24C58.7657 76.24 58.2937 76.416 57.9017 76.768C57.5177 77.12 57.2977 77.608 57.2417 78.232H61.3937ZM63.5551 78.688C63.5551 78.016 63.6911 77.428 63.9631 76.924C64.2351 76.412 64.6071 76.016 65.0791 75.736C65.5591 75.456 66.0951 75.316 66.6871 75.316C67.1991 75.316 67.6751 75.436 68.1151 75.676C68.5551 75.908 68.8911 76.216 69.1231 76.6V73.12H70.2271V82H69.1231V80.764C68.9071 81.156 68.5871 81.48 68.1631 81.736C67.7391 81.984 67.2431 82.108 66.6751 82.108C66.0911 82.108 65.5591 81.964 65.0791 81.676C64.6071 81.388 64.2351 80.984 63.9631 80.464C63.6911 79.944 63.5551 79.352 63.5551 78.688ZM69.1231 78.7C69.1231 78.204 69.0231 77.772 68.8231 77.404C68.6231 77.036 68.3511 76.756 68.0071 76.564C67.6711 76.364 67.2991 76.264 66.8911 76.264C66.4831 76.264 66.1111 76.36 65.7751 76.552C65.4391 76.744 65.1711 77.024 64.9711 77.392C64.7711 77.76 64.6711 78.192 64.6711 78.688C64.6711 79.192 64.7711 79.632 64.9711 80.008C65.1711 80.376 65.4391 80.66 65.7751 80.86C66.1111 81.052 66.4831 81.148 66.8911 81.148C67.2991 81.148 67.6711 81.052 68.0071 80.86C68.3511 80.66 68.6231 80.376 68.8231 80.008C69.0231 79.632 69.1231 79.196 69.1231 78.7ZM77.9044 75.424V82H76.8124V81.028C76.6044 81.364 76.3124 81.628 75.9364 81.82C75.5684 82.004 75.1604 82.096 74.7124 82.096C74.2004 82.096 73.7404 81.992 73.3324 81.784C72.9244 81.568 72.6004 81.248 72.3604 80.824C72.1284 80.4 72.0124 79.884 72.0124 79.276V75.424H73.0924V79.132C73.0924 79.78 73.2564 80.28 73.5844 80.632C73.9124 80.976 74.3604 81.148 74.9284 81.148C75.5124 81.148 75.9724 80.968 76.3084 80.608C76.6444 80.248 76.8124 79.724 76.8124 79.036V75.424H77.9044Z" fill="white"/>
<path d="M26.8335 29.5C26.8335 29.5 29.7085 25.6667 36.4168 25.6667C43.1252 25.6667 46.0002 29.5 46.0002 29.5V56.3334C46.0002 56.3334 43.1252 54.4167 36.4168 54.4167C29.7085 54.4167 26.8335 56.3334 26.8335 56.3334V29.5ZM46.0002 29.5C46.0002 29.5 48.8752 25.6667 55.5835 25.6667C62.2918 25.6667 65.1668 29.5 65.1668 29.5V56.3334C65.1668 56.3334 62.2918 54.4167 55.5835 54.4167C48.8752 54.4167 46.0002 56.3334 46.0002 56.3334V29.5Z" stroke="white" stroke-width="3.83333" stroke-linecap="round" stroke-linejoin="round"/>
</svg>
