<svg width="44" height="44" viewBox="0 0 44 44" fill="none" xmlns="http://www.w3.org/2000/svg">
<path d="M34.206 2.14772L33.6023 0.910217L32.3676 1.51522C27.0958 4.08647 24.8821 10.4486 27.4588 15.7286L27.5358 15.8867C26.2269 19.1276 24.0113 21.9223 21.1544 23.936L19.8826 21.3193C21.5178 20.4408 22.7498 18.9636 23.3205 17.1973C23.8913 15.4309 23.7566 13.5122 22.9447 11.8428L19.8551 5.49172L18.6189 6.09259C16.9054 6.9266 15.5933 8.40717 14.9713 10.2086C14.3493 12.01 14.4684 13.9847 15.3024 15.6983L17.4158 20.0433C17.4282 20.0791 17.4433 20.1148 17.4598 20.1492L19.7836 24.9287C16.8187 27.2683 14.5857 30.4078 13.3486 33.9762L12.9966 34.9937L11.6711 32.2671C13.6905 31.1995 15.2164 29.3894 15.927 27.2184C16.6375 25.0475 16.4772 22.6855 15.4798 20.6305L11.6848 12.8452L10.4473 13.4502C6.08582 15.5815 4.25707 20.8436 6.39245 25.2161L9.53295 31.658C9.5467 31.7006 9.5632 31.7432 9.58382 31.7845L12.2266 37.2212L11.0248 40.7L12.5923 41.2362L13.9769 37.2391L19.2019 37.7836C19.2353 37.7865 19.2688 37.7874 19.3023 37.7863L25.5393 38.4381C26.6896 38.5593 27.8525 38.4526 28.9615 38.1242C30.0706 37.7958 31.104 37.252 32.0029 36.5241C32.9017 35.7961 33.6482 34.8981 34.1999 33.8815C34.7516 32.8649 35.0975 31.7496 35.218 30.5992L35.3609 29.2311L26.7466 28.3332C24.4711 28.0935 22.1917 28.749 20.3912 30.1609C18.5908 31.5727 17.4107 33.6301 17.1009 35.8971L14.5338 35.629L14.9161 34.5262C15.9915 31.4407 17.8798 28.7026 20.3817 26.6007L24.8271 27.0723V27.0751L25.6892 27.1645L26.3863 27.2387C26.3987 27.2399 26.4111 27.2408 26.4234 27.2415L31.8643 27.8093C35.8051 28.2163 39.3471 25.3618 39.7555 21.4128L39.8971 20.0461L32.8708 19.3132H32.8667C29.0071 18.898 25.5654 21.6342 25.0113 25.4251L22.3479 25.1405C25.3733 22.9418 27.714 19.9312 29.0992 16.4573L29.2958 16.3611C34.5841 13.7885 36.7813 7.42359 34.2046 2.14772H34.206ZM29.4306 13.0652C29.4153 13.0596 29.3997 13.055 29.3838 13.0515C28.9958 11.5427 29.0626 9.95281 29.5759 8.4819C30.0892 7.01099 31.026 5.72474 32.2686 4.78497C32.6667 6.29112 32.6096 7.88147 32.1045 9.35519C31.5993 10.8289 30.6689 12.1199 29.4306 13.0652V13.0652ZM17.7761 14.4966C17.3663 13.6548 17.233 12.705 17.3952 11.783C17.5574 10.8609 18.0069 10.0137 18.6794 9.36234L20.4724 13.0446C20.8819 13.8863 21.0147 14.8359 20.8517 15.7577C20.6887 16.6794 20.2383 17.5259 19.5649 18.1761L17.7761 14.4966ZM8.86332 24.0088C8.26523 22.7813 8.10032 21.3874 8.39543 20.0542C8.69054 18.7209 9.42829 17.5268 10.4886 16.6663L13.0048 21.8295V21.8308C13.6007 23.0591 13.7647 24.4525 13.4702 25.7855C13.1758 27.1185 12.4401 28.3131 11.3823 29.1761L8.8647 24.0102V24.0088H8.86332ZM32.149 25.0745L28.0721 24.6482C28.4513 23.7943 29.0915 23.0827 29.9006 22.6155C30.7097 22.1483 31.6461 21.9496 32.5752 22.0481H32.5793L36.6617 22.4743C36.2788 23.3274 35.6365 24.0379 34.8262 24.5045C34.0159 24.9712 33.079 25.1701 32.149 25.0731V25.0745ZM20.1026 35.1037C20.5515 33.8122 21.4239 32.7104 22.5782 31.9775C23.7325 31.2446 25.1008 30.9236 26.4606 31.0667L32.1833 31.6635C31.7344 32.955 30.862 34.0568 29.7077 34.7897C28.5534 35.5226 27.1851 35.8436 25.8253 35.7005L20.1026 35.1037V35.1037Z" fill="white"/>
</svg>
