<svg width="51" height="51" viewBox="0 0 51 51" fill="none" xmlns="http://www.w3.org/2000/svg">
<path d="M14.875 10.625V31.875C14.875 34.2338 12.9838 36.125 10.625 36.125H8.5C7.33125 36.125 6.375 35.1688 6.375 34V27.625H2.125V34C2.125 37.5275 4.9725 40.375 8.5 40.375H10.625C15.3213 40.375 19.125 36.5713 19.125 31.875V10.625M48.875 28.4325L46.2613 25.8187C45.4896 25.0436 44.5723 24.4286 43.5621 24.0092C42.5519 23.5898 41.4688 23.3743 40.375 23.375H36.125V27.625H40.375C41.4375 27.625 42.5 28.05 43.2438 28.815L43.9875 29.5587L41.4375 31.025C40.46 31.5775 39.3762 31.875 38.25 31.875H36.125C34.935 31.875 34 30.94 34 29.75V12.75H29.75V20.8463L28.4325 19.38C26.9875 17.7862 24.65 17 22.5038 17H21.25V21.25H22.5038C23.8638 21.25 25.16 21.7813 26.1162 22.7588L29.75 26.3712V29.75C29.75 32.13 27.88 34 25.5 34H21.25V38.25H25.5C28.4113 38.25 30.8125 36.7625 32.2363 34.51C32.7402 35.03 33.3451 35.4415 34.0138 35.7192C34.6825 35.997 35.401 36.135 36.125 36.125H38.25C40.12 36.125 41.9475 35.6362 43.5625 34.7012L48.875 31.6413V28.4325Z" fill="white"/>
</svg>
