<svg width="93" height="93" viewBox="0 0 93 93" fill="none" xmlns="http://www.w3.org/2000/svg">
<rect width="93" height="93" rx="12" fill="#00BEBE"/>
<path d="M50.4165 46.2083C57.8014 46.2083 61.4948 46.2083 63.788 43.9132C66.0832 41.62 66.0832 37.9265 66.0832 30.5417C66.0832 23.1568 66.0832 19.4634 63.788 17.1702C61.4948 14.875 57.8014 14.875 50.4165 14.875H42.5832C35.1983 14.875 31.5049 14.875 29.2117 17.1702C26.9165 19.4634 26.9165 23.1568 26.9165 30.5417C26.9165 37.9265 26.9165 41.62 29.2117 43.9132C30.4905 45.1939 32.204 45.7599 34.7498 46.0086" stroke="white" stroke-width="3.91667" stroke-linecap="round" stroke-linejoin="round"/>
<path d="M46.5001 30.5417V30.5613M38.6668 30.5417V30.5613M54.3334 30.5417V30.5613M50.4168 46.2084C47.9963 46.2084 45.329 47.1875 42.8948 48.4506C38.9821 50.4814 37.0257 51.4978 36.0622 50.8496C35.0987 50.2034 35.2808 48.1961 35.647 44.1834L35.7293 43.2709" stroke="white" stroke-width="3.91667" stroke-linecap="round"/>
<path d="M20.46 76L17.016 72.184V76H15.924V67.636H17.016V71.512L20.472 67.636H21.852L18.06 71.824L21.888 76H20.46ZM25.9756 76.108C25.3596 76.108 24.7996 75.968 24.2956 75.688C23.7996 75.408 23.4076 75.012 23.1196 74.5C22.8396 73.98 22.6996 73.38 22.6996 72.7C22.6996 72.028 22.8436 71.436 23.1316 70.924C23.4276 70.404 23.8276 70.008 24.3316 69.736C24.8356 69.456 25.3996 69.316 26.0236 69.316C26.6476 69.316 27.2116 69.456 27.7156 69.736C28.2196 70.008 28.6156 70.4 28.9036 70.912C29.1996 71.424 29.3476 72.02 29.3476 72.7C29.3476 73.38 29.1956 73.98 28.8916 74.5C28.5956 75.012 28.1916 75.408 27.6796 75.688C27.1676 75.968 26.5996 76.108 25.9756 76.108ZM25.9756 75.148C26.3676 75.148 26.7356 75.056 27.0796 74.872C27.4236 74.688 27.6996 74.412 27.9076 74.044C28.1236 73.676 28.2316 73.228 28.2316 72.7C28.2316 72.172 28.1276 71.724 27.9196 71.356C27.7116 70.988 27.4396 70.716 27.1036 70.54C26.7676 70.356 26.4036 70.264 26.0116 70.264C25.6116 70.264 25.2436 70.356 24.9076 70.54C24.5796 70.716 24.3156 70.988 24.1156 71.356C23.9156 71.724 23.8156 72.172 23.8156 72.7C23.8156 73.236 23.9116 73.688 24.1036 74.056C24.3036 74.424 24.5676 74.7 24.8956 74.884C25.2236 75.06 25.5836 75.148 25.9756 75.148ZM33.9874 69.304C34.7874 69.304 35.4354 69.548 35.9314 70.036C36.4274 70.516 36.6754 71.212 36.6754 72.124V76H35.5954V72.28C35.5954 71.624 35.4314 71.124 35.1034 70.78C34.7754 70.428 34.3274 70.252 33.7594 70.252C33.1834 70.252 32.7234 70.432 32.3794 70.792C32.0434 71.152 31.8754 71.676 31.8754 72.364V76H30.7834V69.424H31.8754V70.36C32.0914 70.024 32.3834 69.764 32.7514 69.58C33.1274 69.396 33.5394 69.304 33.9874 69.304ZM40.7872 76.108C40.2832 76.108 39.8312 76.024 39.4312 75.856C39.0312 75.68 38.7152 75.44 38.4832 75.136C38.2512 74.824 38.1232 74.468 38.0992 74.068H39.2272C39.2592 74.396 39.4112 74.664 39.6832 74.872C39.9632 75.08 40.3272 75.184 40.7752 75.184C41.1912 75.184 41.5192 75.092 41.7592 74.908C41.9992 74.724 42.1192 74.492 42.1192 74.212C42.1192 73.924 41.9912 73.712 41.7352 73.576C41.4792 73.432 41.0832 73.292 40.5472 73.156C40.0592 73.028 39.6592 72.9 39.3472 72.772C39.0432 72.636 38.7792 72.44 38.5552 72.184C38.3392 71.92 38.2312 71.576 38.2312 71.152C38.2312 70.816 38.3312 70.508 38.5312 70.228C38.7312 69.948 39.0152 69.728 39.3832 69.568C39.7512 69.4 40.1712 69.316 40.6432 69.316C41.3712 69.316 41.9592 69.5 42.4072 69.868C42.8552 70.236 43.0952 70.74 43.1272 71.38H42.0352C42.0112 71.036 41.8712 70.76 41.6152 70.552C41.3672 70.344 41.0312 70.24 40.6072 70.24C40.2152 70.24 39.9032 70.324 39.6712 70.492C39.4392 70.66 39.3232 70.88 39.3232 71.152C39.3232 71.368 39.3912 71.548 39.5272 71.692C39.6712 71.828 39.8472 71.94 40.0552 72.028C40.2712 72.108 40.5672 72.2 40.9432 72.304C41.4152 72.432 41.7992 72.56 42.0952 72.688C42.3912 72.808 42.6432 72.992 42.8512 73.24C43.0672 73.488 43.1792 73.812 43.1872 74.212C43.1872 74.572 43.0872 74.896 42.8872 75.184C42.6872 75.472 42.4032 75.7 42.0352 75.868C41.6752 76.028 41.2592 76.108 40.7872 76.108ZM50.5607 69.424V76H49.4687V75.028C49.2607 75.364 48.9687 75.628 48.5927 75.82C48.2247 76.004 47.8167 76.096 47.3687 76.096C46.8567 76.096 46.3967 75.992 45.9887 75.784C45.5807 75.568 45.2567 75.248 45.0167 74.824C44.7847 74.4 44.6687 73.884 44.6687 73.276V69.424H45.7487V73.132C45.7487 73.78 45.9127 74.28 46.2407 74.632C46.5687 74.976 47.0167 75.148 47.5847 75.148C48.1687 75.148 48.6287 74.968 48.9647 74.608C49.3007 74.248 49.4687 73.724 49.4687 73.036V69.424H50.5607ZM53.4965 67.12V76H52.4045V67.12H53.4965ZM56.6896 70.324V74.2C56.6896 74.52 56.7576 74.748 56.8936 74.884C57.0296 75.012 57.2656 75.076 57.6016 75.076H58.4056V76H57.4216C56.8136 76 56.3576 75.86 56.0536 75.58C55.7496 75.3 55.5976 74.84 55.5976 74.2V70.324H54.7456V69.424H55.5976V67.768H56.6896V69.424H58.4056V70.324H56.6896ZM59.3207 72.688C59.3207 72.016 59.4567 71.428 59.7287 70.924C60.0007 70.412 60.3727 70.016 60.8447 69.736C61.3247 69.456 61.8567 69.316 62.4407 69.316C63.0167 69.316 63.5167 69.44 63.9407 69.688C64.3647 69.936 64.6807 70.248 64.8887 70.624V69.424H65.9927V76H64.8887V74.776C64.6727 75.16 64.3487 75.48 63.9167 75.736C63.4927 75.984 62.9967 76.108 62.4287 76.108C61.8447 76.108 61.3167 75.964 60.8447 75.676C60.3727 75.388 60.0007 74.984 59.7287 74.464C59.4567 73.944 59.3207 73.352 59.3207 72.688ZM64.8887 72.7C64.8887 72.204 64.7887 71.772 64.5887 71.404C64.3887 71.036 64.1167 70.756 63.7727 70.564C63.4367 70.364 63.0647 70.264 62.6567 70.264C62.2487 70.264 61.8767 70.36 61.5407 70.552C61.2047 70.744 60.9367 71.024 60.7367 71.392C60.5367 71.76 60.4367 72.192 60.4367 72.688C60.4367 73.192 60.5367 73.632 60.7367 74.008C60.9367 74.376 61.2047 74.66 61.5407 74.86C61.8767 75.052 62.2487 75.148 62.6567 75.148C63.0647 75.148 63.4367 75.052 63.7727 74.86C64.1167 74.66 64.3887 74.376 64.5887 74.008C64.7887 73.632 64.8887 73.196 64.8887 72.7ZM70.1661 76.108C69.6621 76.108 69.2101 76.024 68.8101 75.856C68.4101 75.68 68.0941 75.44 67.8621 75.136C67.6301 74.824 67.5021 74.468 67.4781 74.068H68.6061C68.6381 74.396 68.7901 74.664 69.0621 74.872C69.3421 75.08 69.7061 75.184 70.1541 75.184C70.5701 75.184 70.8981 75.092 71.1381 74.908C71.3781 74.724 71.4981 74.492 71.4981 74.212C71.4981 73.924 71.3701 73.712 71.1141 73.576C70.8581 73.432 70.4621 73.292 69.9261 73.156C69.4381 73.028 69.0381 72.9 68.7261 72.772C68.4221 72.636 68.1581 72.44 67.9341 72.184C67.7181 71.92 67.6101 71.576 67.6101 71.152C67.6101 70.816 67.7101 70.508 67.9101 70.228C68.1101 69.948 68.3941 69.728 68.7621 69.568C69.1301 69.4 69.5501 69.316 70.0221 69.316C70.7501 69.316 71.3381 69.5 71.7861 69.868C72.2341 70.236 72.4741 70.74 72.5061 71.38H71.4141C71.3901 71.036 71.2501 70.76 70.9941 70.552C70.7461 70.344 70.4101 70.24 69.9861 70.24C69.5941 70.24 69.2821 70.324 69.0501 70.492C68.8181 70.66 68.7021 70.88 68.7021 71.152C68.7021 71.368 68.7701 71.548 68.9061 71.692C69.0501 71.828 69.2261 71.94 69.4341 72.028C69.6501 72.108 69.9461 72.2 70.3221 72.304C70.7941 72.432 71.1781 72.56 71.4741 72.688C71.7701 72.808 72.0221 72.992 72.2301 73.24C72.4461 73.488 72.5581 73.812 72.5661 74.212C72.5661 74.572 72.4661 74.896 72.2661 75.184C72.0661 75.472 71.7821 75.7 71.4141 75.868C71.0541 76.028 70.6381 76.108 70.1661 76.108ZM74.6716 68.356C74.4636 68.356 74.2876 68.284 74.1436 68.14C73.9996 67.996 73.9276 67.82 73.9276 67.612C73.9276 67.404 73.9996 67.228 74.1436 67.084C74.2876 66.94 74.4636 66.868 74.6716 66.868C74.8716 66.868 75.0396 66.94 75.1756 67.084C75.3196 67.228 75.3916 67.404 75.3916 67.612C75.3916 67.82 75.3196 67.996 75.1756 68.14C75.0396 68.284 74.8716 68.356 74.6716 68.356ZM75.1996 69.424V76H74.1076V69.424H75.1996Z" fill="white"/>
</svg>
