<svg width="93" height="93" viewBox="0 0 93 93" fill="none" xmlns="http://www.w3.org/2000/svg">
<rect width="93" height="93" rx="12" fill="#00BEBE"/>
<path d="M17.368 73.636V82H16.276V78.208H12.016V82H10.924V73.636H12.016V77.308H16.276V73.636H17.368ZM18.8246 78.688C18.8246 78.016 18.9606 77.428 19.2326 76.924C19.5046 76.412 19.8766 76.016 20.3486 75.736C20.8286 75.456 21.3606 75.316 21.9446 75.316C22.5206 75.316 23.0206 75.44 23.4446 75.688C23.8686 75.936 24.1846 76.248 24.3926 76.624V75.424H25.4966V82H24.3926V80.776C24.1766 81.16 23.8526 81.48 23.4206 81.736C22.9966 81.984 22.5006 82.108 21.9326 82.108C21.3486 82.108 20.8206 81.964 20.3486 81.676C19.8766 81.388 19.5046 80.984 19.2326 80.464C18.9606 79.944 18.8246 79.352 18.8246 78.688ZM24.3926 78.7C24.3926 78.204 24.2926 77.772 24.0926 77.404C23.8926 77.036 23.6206 76.756 23.2766 76.564C22.9406 76.364 22.5686 76.264 22.1606 76.264C21.7526 76.264 21.3806 76.36 21.0446 76.552C20.7086 76.744 20.4406 77.024 20.2406 77.392C20.0406 77.76 19.9406 78.192 19.9406 78.688C19.9406 79.192 20.0406 79.632 20.2406 80.008C20.4406 80.376 20.7086 80.66 21.0446 80.86C21.3806 81.052 21.7526 81.148 22.1606 81.148C22.5686 81.148 22.9406 81.052 23.2766 80.86C23.6206 80.66 23.8926 80.376 24.0926 80.008C24.2926 79.632 24.3926 79.196 24.3926 78.7ZM28.434 73.12V82H27.342V73.12H28.434ZM29.8871 78.688C29.8871 78.016 30.0231 77.428 30.2951 76.924C30.5671 76.412 30.9391 76.016 31.4111 75.736C31.8911 75.456 32.4231 75.316 33.0071 75.316C33.5831 75.316 34.0831 75.44 34.5071 75.688C34.9311 75.936 35.2471 76.248 35.4551 76.624V75.424H36.5591V82H35.4551V80.776C35.2391 81.16 34.9151 81.48 34.4831 81.736C34.0591 81.984 33.5631 82.108 32.9951 82.108C32.4111 82.108 31.8831 81.964 31.4111 81.676C30.9391 81.388 30.5671 80.984 30.2951 80.464C30.0231 79.944 29.8871 79.352 29.8871 78.688ZM35.4551 78.7C35.4551 78.204 35.3551 77.772 35.1551 77.404C34.9551 77.036 34.6831 76.756 34.3391 76.564C34.0031 76.364 33.6311 76.264 33.2231 76.264C32.8151 76.264 32.4431 76.36 32.1071 76.552C31.7711 76.744 31.5031 77.024 31.3031 77.392C31.1031 77.76 31.0031 78.192 31.0031 78.688C31.0031 79.192 31.1031 79.632 31.3031 80.008C31.5031 80.376 31.7711 80.66 32.1071 80.86C32.4431 81.052 32.8151 81.148 33.2231 81.148C33.6311 81.148 34.0031 81.052 34.3391 80.86C34.6831 80.66 34.9551 80.376 35.1551 80.008C35.3551 79.632 35.4551 79.196 35.4551 78.7ZM39.4965 73.12V82H38.4045V73.12H39.4965ZM44.1488 78.7C44.1488 78.02 44.2848 77.428 44.5568 76.924C44.8288 76.412 45.2048 76.016 45.6848 75.736C46.1728 75.456 46.7288 75.316 47.3528 75.316C48.1608 75.316 48.8248 75.512 49.3448 75.904C49.8728 76.296 50.2208 76.84 50.3888 77.536H49.2128C49.1008 77.136 48.8808 76.82 48.5528 76.588C48.2328 76.356 47.8328 76.24 47.3528 76.24C46.7288 76.24 46.2248 76.456 45.8408 76.888C45.4568 77.312 45.2648 77.916 45.2648 78.7C45.2648 79.492 45.4568 80.104 45.8408 80.536C46.2248 80.968 46.7288 81.184 47.3528 81.184C47.8328 81.184 48.2328 81.072 48.5528 80.848C48.8728 80.624 49.0928 80.304 49.2128 79.888H50.3888C50.2128 80.56 49.8608 81.1 49.3328 81.508C48.8048 81.908 48.1448 82.108 47.3528 82.108C46.7288 82.108 46.1728 81.968 45.6848 81.688C45.2048 81.408 44.8288 81.012 44.5568 80.5C44.2848 79.988 44.1488 79.388 44.1488 78.7ZM57.8459 78.46C57.8459 78.668 57.8339 78.888 57.8099 79.12H52.5539C52.5939 79.768 52.8139 80.276 53.2139 80.644C53.6219 81.004 54.1139 81.184 54.6899 81.184C55.1619 81.184 55.5539 81.076 55.8659 80.86C56.1859 80.636 56.4099 80.34 56.5379 79.972H57.7139C57.5379 80.604 57.1859 81.12 56.6579 81.52C56.1299 81.912 55.4739 82.108 54.6899 82.108C54.0659 82.108 53.5059 81.968 53.0099 81.688C52.5219 81.408 52.1379 81.012 51.8579 80.5C51.5779 79.98 51.4379 79.38 51.4379 78.7C51.4379 78.02 51.5739 77.424 51.8459 76.912C52.1179 76.4 52.4979 76.008 52.9859 75.736C53.4819 75.456 54.0499 75.316 54.6899 75.316C55.3139 75.316 55.8659 75.452 56.3459 75.724C56.8259 75.996 57.1939 76.372 57.4499 76.852C57.7139 77.324 57.8459 77.86 57.8459 78.46ZM56.7179 78.232C56.7179 77.816 56.6259 77.46 56.4419 77.164C56.2579 76.86 56.0059 76.632 55.6859 76.48C55.3739 76.32 55.0259 76.24 54.6419 76.24C54.0899 76.24 53.6179 76.416 53.2259 76.768C52.8419 77.12 52.6219 77.608 52.5659 78.232H56.7179ZM62.4913 75.304C63.2913 75.304 63.9393 75.548 64.4353 76.036C64.9313 76.516 65.1793 77.212 65.1793 78.124V82H64.0993V78.28C64.0993 77.624 63.9353 77.124 63.6073 76.78C63.2793 76.428 62.8313 76.252 62.2633 76.252C61.6873 76.252 61.2273 76.432 60.8833 76.792C60.5473 77.152 60.3793 77.676 60.3793 78.364V82H59.2873V75.424H60.3793V76.36C60.5953 76.024 60.8873 75.764 61.2553 75.58C61.6313 75.396 62.0433 75.304 62.4913 75.304ZM68.2951 76.324V80.2C68.2951 80.52 68.3631 80.748 68.4991 80.884C68.6351 81.012 68.8711 81.076 69.2071 81.076H70.0111V82H69.0271C68.4191 82 67.9631 81.86 67.6591 81.58C67.3551 81.3 67.2031 80.84 67.2031 80.2V76.324H66.3511V75.424H67.2031V73.768H68.2951V75.424H70.0111V76.324H68.2951ZM77.3342 78.46C77.3342 78.668 77.3222 78.888 77.2982 79.12H72.0422C72.0822 79.768 72.3022 80.276 72.7022 80.644C73.1102 81.004 73.6022 81.184 74.1782 81.184C74.6502 81.184 75.0422 81.076 75.3542 80.86C75.6742 80.636 75.8982 80.34 76.0262 79.972H77.2022C77.0262 80.604 76.6742 81.12 76.1462 81.52C75.6182 81.912 74.9622 82.108 74.1782 82.108C73.5542 82.108 72.9942 81.968 72.4982 81.688C72.0102 81.408 71.6262 81.012 71.3462 80.5C71.0662 79.98 70.9262 79.38 70.9262 78.7C70.9262 78.02 71.0622 77.424 71.3342 76.912C71.6062 76.4 71.9862 76.008 72.4742 75.736C72.9702 75.456 73.5382 75.316 74.1782 75.316C74.8022 75.316 75.3542 75.452 75.8342 75.724C76.3142 75.996 76.6822 76.372 76.9382 76.852C77.2022 77.324 77.3342 77.86 77.3342 78.46ZM76.2062 78.232C76.2062 77.816 76.1142 77.46 75.9302 77.164C75.7462 76.86 75.4942 76.632 75.1742 76.48C74.8622 76.32 74.5142 76.24 74.1302 76.24C73.5782 76.24 73.1062 76.416 72.7142 76.768C72.3302 77.12 72.1102 77.608 72.0542 78.232H76.2062ZM79.8676 76.492C80.0596 76.116 80.3316 75.824 80.6836 75.616C81.0436 75.408 81.4796 75.304 81.9916 75.304V76.432H81.7036C80.4796 76.432 79.8676 77.096 79.8676 78.424V82H78.7756V75.424H79.8676V76.492Z" fill="white"/>
<path d="M36.875 25.625V46.875C36.875 49.2337 34.9838 51.125 32.625 51.125H30.5C29.3313 51.125 28.375 50.1688 28.375 49V42.625H24.125V49C24.125 52.5275 26.9725 55.375 30.5 55.375H32.625C37.3212 55.375 41.125 51.5713 41.125 46.875V25.625M70.875 43.4325L68.2612 40.8187C67.4896 40.0436 66.5723 39.4286 65.5621 39.0092C64.5519 38.5898 63.4688 38.3743 62.375 38.375H58.125V42.625H62.375C63.4375 42.625 64.5 43.05 65.2438 43.815L65.9875 44.5588L63.4375 46.025C62.46 46.5775 61.3763 46.875 60.25 46.875H58.125C56.935 46.875 56 45.94 56 44.75V27.75H51.75V35.8463L50.4325 34.38C48.9875 32.7862 46.65 32 44.5037 32H43.25V36.25H44.5037C45.8638 36.25 47.16 36.7812 48.1162 37.7587L51.75 41.3713V44.75C51.75 47.13 49.88 49 47.5 49H43.25V53.25H47.5C50.4112 53.25 52.8125 51.7625 54.2362 49.51C54.7402 50.03 55.3451 50.4415 56.0138 50.7192C56.6825 50.997 57.401 51.135 58.125 51.125H60.25C62.12 51.125 63.9475 50.6362 65.5625 49.7013L70.875 46.6413V43.4325Z" fill="white"/>
<path d="M35.875 25.625V46.875C35.875 49.2337 33.9838 51.125 31.625 51.125H29.5C28.3313 51.125 27.375 50.1688 27.375 49V42.625H23.125V49C23.125 52.5275 25.9725 55.375 29.5 55.375H31.625C36.3212 55.375 40.125 51.5713 40.125 46.875V25.625M69.875 43.4325L67.2612 40.8187C66.4896 40.0436 65.5723 39.4286 64.5621 39.0092C63.5519 38.5898 62.4688 38.3743 61.375 38.375H57.125V42.625H61.375C62.4375 42.625 63.5 43.05 64.2438 43.815L64.9875 44.5588L62.4375 46.025C61.46 46.5775 60.3763 46.875 59.25 46.875H57.125C55.935 46.875 55 45.94 55 44.75V27.75H50.75V35.8463L49.4325 34.38C47.9875 32.7862 45.65 32 43.5037 32H42.25V36.25H43.5037C44.8638 36.25 46.16 36.7812 47.1162 37.7587L50.75 41.3713V44.75C50.75 47.13 48.88 49 46.5 49H42.25V53.25H46.5C49.4112 53.25 51.8125 51.7625 53.2362 49.51C53.7402 50.03 54.3451 50.4415 55.0138 50.7192C55.6825 50.997 56.401 51.135 57.125 51.125H59.25C61.12 51.125 62.9475 50.6362 64.5625 49.7013L69.875 46.6413V43.4325Z" fill="white"/>
</svg>
