<svg width="93" height="93" viewBox="0 0 93 93" fill="none" xmlns="http://www.w3.org/2000/svg">
<rect width="93" height="93" rx="12" fill="#00A6A6"/>
<path d="M10.516 72.084C10.516 72.78 10.276 73.36 9.796 73.824C9.324 74.28 8.6 74.508 7.624 74.508H6.016V78H4.924V69.636H7.624C8.568 69.636 9.284 69.864 9.772 70.32C10.268 70.776 10.516 71.364 10.516 72.084ZM7.624 73.608C8.232 73.608 8.68 73.476 8.968 73.212C9.256 72.948 9.4 72.572 9.4 72.084C9.4 71.052 8.808 70.536 7.624 70.536H6.016V73.608H7.624ZM12.9652 72.492C13.1572 72.116 13.4292 71.824 13.7812 71.616C14.1412 71.408 14.5772 71.304 15.0892 71.304V72.432H14.8012C13.5772 72.432 12.9652 73.096 12.9652 74.424V78H11.8732V71.424H12.9652V72.492ZM19.2178 78.108C18.6018 78.108 18.0418 77.968 17.5378 77.688C17.0418 77.408 16.6498 77.012 16.3618 76.5C16.0818 75.98 15.9418 75.38 15.9418 74.7C15.9418 74.028 16.0858 73.436 16.3738 72.924C16.6698 72.404 17.0698 72.008 17.5738 71.736C18.0778 71.456 18.6418 71.316 19.2658 71.316C19.8898 71.316 20.4538 71.456 20.9578 71.736C21.4618 72.008 21.8578 72.4 22.1458 72.912C22.4418 73.424 22.5898 74.02 22.5898 74.7C22.5898 75.38 22.4378 75.98 22.1338 76.5C21.8378 77.012 21.4338 77.408 20.9218 77.688C20.4098 77.968 19.8418 78.108 19.2178 78.108ZM19.2178 77.148C19.6098 77.148 19.9778 77.056 20.3218 76.872C20.6658 76.688 20.9418 76.412 21.1498 76.044C21.3658 75.676 21.4738 75.228 21.4738 74.7C21.4738 74.172 21.3698 73.724 21.1618 73.356C20.9538 72.988 20.6818 72.716 20.3458 72.54C20.0098 72.356 19.6458 72.264 19.2538 72.264C18.8538 72.264 18.4858 72.356 18.1498 72.54C17.8218 72.716 17.5578 72.988 17.3578 73.356C17.1578 73.724 17.0578 74.172 17.0578 74.7C17.0578 75.236 17.1538 75.688 17.3458 76.056C17.5458 76.424 17.8098 76.7 18.1378 76.884C18.4658 77.06 18.8258 77.148 19.2178 77.148ZM23.6176 74.688C23.6176 74.016 23.7536 73.428 24.0256 72.924C24.2976 72.412 24.6696 72.016 25.1416 71.736C25.6216 71.456 26.1576 71.316 26.7496 71.316C27.2616 71.316 27.7376 71.436 28.1776 71.676C28.6176 71.908 28.9536 72.216 29.1856 72.6V69.12H30.2896V78H29.1856V76.764C28.9696 77.156 28.6496 77.48 28.2256 77.736C27.8016 77.984 27.3056 78.108 26.7376 78.108C26.1536 78.108 25.6216 77.964 25.1416 77.676C24.6696 77.388 24.2976 76.984 24.0256 76.464C23.7536 75.944 23.6176 75.352 23.6176 74.688ZM29.1856 74.7C29.1856 74.204 29.0856 73.772 28.8856 73.404C28.6856 73.036 28.4136 72.756 28.0696 72.564C27.7336 72.364 27.3616 72.264 26.9536 72.264C26.5456 72.264 26.1736 72.36 25.8376 72.552C25.5016 72.744 25.2336 73.024 25.0336 73.392C24.8336 73.76 24.7336 74.192 24.7336 74.688C24.7336 75.192 24.8336 75.632 25.0336 76.008C25.2336 76.376 25.5016 76.66 25.8376 76.86C26.1736 77.052 26.5456 77.148 26.9536 77.148C27.3616 77.148 27.7336 77.052 28.0696 76.86C28.4136 76.66 28.6856 76.376 28.8856 76.008C29.0856 75.632 29.1856 75.196 29.1856 74.7ZM37.9669 71.424V78H36.8749V77.028C36.6669 77.364 36.3749 77.628 35.9989 77.82C35.6309 78.004 35.2229 78.096 34.7749 78.096C34.2629 78.096 33.8029 77.992 33.3949 77.784C32.9869 77.568 32.6629 77.248 32.4229 76.824C32.1909 76.4 32.0749 75.884 32.0749 75.276V71.424H33.1549V75.132C33.1549 75.78 33.3189 76.28 33.6469 76.632C33.9749 76.976 34.4229 77.148 34.9909 77.148C35.5749 77.148 36.0349 76.968 36.3709 76.608C36.7069 76.248 36.8749 75.724 36.8749 75.036V71.424H37.9669ZM43.4827 78L40.9027 75.096V78H39.8107V69.12H40.9027V74.34L43.4347 71.424H44.9587L41.8627 74.7L44.9707 78H43.4827ZM52.4497 71.304C52.9457 71.304 53.3937 71.412 53.7937 71.628C54.1937 71.836 54.5057 72.152 54.7297 72.576C54.9617 73 55.0777 73.516 55.0777 74.124V78H53.9977V74.28C53.9977 73.624 53.8337 73.124 53.5057 72.78C53.1777 72.428 52.7297 72.252 52.1617 72.252C51.5857 72.252 51.1257 72.432 50.7817 72.792C50.4457 73.152 50.2777 73.676 50.2777 74.364V78H49.1857V69.12H50.2777V72.36C50.4937 72.024 50.7897 71.764 51.1657 71.58C51.5497 71.396 51.9777 71.304 52.4497 71.304ZM62.8615 74.46C62.8615 74.668 62.8495 74.888 62.8255 75.12H57.5695C57.6095 75.768 57.8295 76.276 58.2295 76.644C58.6375 77.004 59.1295 77.184 59.7055 77.184C60.1775 77.184 60.5695 77.076 60.8815 76.86C61.2015 76.636 61.4255 76.34 61.5535 75.972H62.7295C62.5535 76.604 62.2015 77.12 61.6735 77.52C61.1455 77.912 60.4895 78.108 59.7055 78.108C59.0815 78.108 58.5215 77.968 58.0255 77.688C57.5375 77.408 57.1535 77.012 56.8735 76.5C56.5935 75.98 56.4535 75.38 56.4535 74.7C56.4535 74.02 56.5895 73.424 56.8615 72.912C57.1335 72.4 57.5135 72.008 58.0015 71.736C58.4975 71.456 59.0655 71.316 59.7055 71.316C60.3295 71.316 60.8815 71.452 61.3615 71.724C61.8415 71.996 62.2095 72.372 62.4655 72.852C62.7295 73.324 62.8615 73.86 62.8615 74.46ZM61.7335 74.232C61.7335 73.816 61.6415 73.46 61.4575 73.164C61.2735 72.86 61.0215 72.632 60.7015 72.48C60.3895 72.32 60.0415 72.24 59.6575 72.24C59.1055 72.24 58.6335 72.416 58.2415 72.768C57.8575 73.12 57.6375 73.608 57.5815 74.232H61.7335ZM65.3949 72.492C65.5869 72.116 65.8589 71.824 66.2109 71.616C66.5709 71.408 67.0069 71.304 67.5189 71.304V72.432H67.2309C66.0069 72.432 65.3949 73.096 65.3949 74.424V78H64.3029V71.424H65.3949V72.492ZM69.8715 72.648C70.0955 72.256 70.4235 71.936 70.8555 71.688C71.2875 71.44 71.7795 71.316 72.3315 71.316C72.9235 71.316 73.4555 71.456 73.9275 71.736C74.3995 72.016 74.7715 72.412 75.0435 72.924C75.3155 73.428 75.4515 74.016 75.4515 74.688C75.4515 75.352 75.3155 75.944 75.0435 76.464C74.7715 76.984 74.3955 77.388 73.9155 77.676C73.4435 77.964 72.9155 78.108 72.3315 78.108C71.7635 78.108 71.2635 77.984 70.8315 77.736C70.4075 77.488 70.0875 77.172 69.8715 76.788V78H68.7795V69.12H69.8715V72.648ZM74.3355 74.688C74.3355 74.192 74.2355 73.76 74.0355 73.392C73.8355 73.024 73.5635 72.744 73.2195 72.552C72.8835 72.36 72.5115 72.264 72.1035 72.264C71.7035 72.264 71.3315 72.364 70.9875 72.564C70.6515 72.756 70.3795 73.04 70.1715 73.416C69.9715 73.784 69.8715 74.212 69.8715 74.7C69.8715 75.196 69.9715 75.632 70.1715 76.008C70.3795 76.376 70.6515 76.66 70.9875 76.86C71.3315 77.052 71.7035 77.148 72.1035 77.148C72.5115 77.148 72.8835 77.052 73.2195 76.86C73.5635 76.66 73.8355 76.376 74.0355 76.008C74.2355 75.632 74.3355 75.192 74.3355 74.688ZM76.4808 74.688C76.4808 74.016 76.6168 73.428 76.8888 72.924C77.1608 72.412 77.5328 72.016 78.0048 71.736C78.4848 71.456 79.0168 71.316 79.6008 71.316C80.1768 71.316 80.6768 71.44 81.1008 71.688C81.5248 71.936 81.8408 72.248 82.0488 72.624V71.424H83.1528V78H82.0488V76.776C81.8328 77.16 81.5088 77.48 81.0768 77.736C80.6528 77.984 80.1568 78.108 79.5888 78.108C79.0048 78.108 78.4768 77.964 78.0048 77.676C77.5328 77.388 77.1608 76.984 76.8888 76.464C76.6168 75.944 76.4808 75.352 76.4808 74.688ZM82.0488 74.7C82.0488 74.204 81.9488 73.772 81.7488 73.404C81.5488 73.036 81.2768 72.756 80.9328 72.564C80.5968 72.364 80.2248 72.264 79.8168 72.264C79.4088 72.264 79.0368 72.36 78.7008 72.552C78.3648 72.744 78.0968 73.024 77.8968 73.392C77.6968 73.76 77.5968 74.192 77.5968 74.688C77.5968 75.192 77.6968 75.632 77.8968 76.008C78.0968 76.376 78.3648 76.66 78.7008 76.86C79.0368 77.052 79.4088 77.148 79.8168 77.148C80.2248 77.148 80.5968 77.052 80.9328 76.86C81.2768 76.66 81.5488 76.376 81.7488 76.008C81.9488 75.632 82.0488 75.196 82.0488 74.7ZM86.0902 69.12V78H84.9982V69.12H86.0902Z" fill="white"/>
<path d="M58.206 19.1477L57.6023 17.9102L56.3676 18.5152C51.0958 21.0865 48.8821 27.4486 51.4588 32.7286L51.5358 32.8867C50.2269 36.1276 48.0113 38.9223 45.1544 40.936L43.8826 38.3193C45.5178 37.4408 46.7498 35.9636 47.3205 34.1973C47.8913 32.4309 47.7566 30.5122 46.9447 28.8428L43.8551 22.4917L42.6189 23.0926C40.9054 23.9266 39.5933 25.4072 38.9713 27.2086C38.3493 29.01 38.4684 30.9847 39.3024 32.6983L41.4158 37.0433C41.4282 37.0791 41.4433 37.1148 41.4598 37.1492L43.7836 41.9287C40.8187 44.2683 38.5857 47.4078 37.3486 50.9762L36.9966 51.9937L35.6711 49.2671C37.6905 48.1995 39.2164 46.3894 39.927 44.2184C40.6375 42.0475 40.4772 39.6855 39.4798 37.6305L35.6848 29.8452L34.4473 30.4502C30.0858 32.5815 28.2571 37.8436 30.3924 42.2161L33.5329 48.658C33.5467 48.7006 33.5632 48.7432 33.5838 48.7845L36.2266 54.2212L35.0248 57.7L36.5923 58.2362L37.9769 54.2391L43.2019 54.7836C43.2353 54.7865 43.2688 54.7874 43.3023 54.7863L49.5393 55.4381C50.6896 55.5593 51.8525 55.4526 52.9615 55.1242C54.0706 54.7958 55.104 54.252 56.0029 53.5241C56.9017 52.7961 57.6482 51.8981 58.1999 50.8815C58.7516 49.8649 59.0975 48.7496 59.218 47.5992L59.3609 46.2311L50.7466 45.3332C48.4711 45.0935 46.1917 45.749 44.3912 47.1609C42.5908 48.5727 41.4107 50.6301 41.1009 52.8971L38.5338 52.629L38.9161 51.5262C39.9915 48.4407 41.8798 45.7026 44.3817 43.6007L48.8271 44.0723V44.0751L49.6892 44.1645L50.3863 44.2387C50.3987 44.2399 50.4111 44.2408 50.4234 44.2415L55.8643 44.8093C59.8051 45.2163 63.3471 42.3618 63.7555 38.4128L63.8971 37.0461L56.8708 36.3132H56.8667C53.0071 35.898 49.5654 38.6342 49.0113 42.4251L46.3479 42.1405C49.3733 39.9418 51.714 36.9312 53.0992 33.4573L53.2958 33.3611C58.5841 30.7885 60.7813 24.4236 58.2046 19.1477H58.206ZM53.4306 30.0652C53.4153 30.0596 53.3997 30.055 53.3838 30.0515C52.9958 28.5427 53.0626 26.9528 53.5759 25.4819C54.0892 24.011 55.026 22.7247 56.2686 21.785C56.6667 23.2911 56.6096 24.8815 56.1045 26.3552C55.5993 27.8289 54.6689 29.1199 53.4306 30.0652ZM41.7761 31.4966C41.3663 30.6548 41.233 29.705 41.3952 28.783C41.5574 27.8609 42.0069 27.0137 42.6794 26.3623L44.4724 30.0446C44.8819 30.8863 45.0147 31.8359 44.8517 32.7577C44.6887 33.6794 44.2383 34.5259 43.5649 35.1761L41.7761 31.4966ZM32.8633 41.0088C32.2652 39.7813 32.1003 38.3874 32.3954 37.0542C32.6905 35.7209 33.4283 34.5268 34.4886 33.6663L37.0048 38.8295V38.8308C37.6007 40.0591 37.7647 41.4525 37.4702 42.7855C37.1758 44.1185 36.4401 45.3131 35.3823 46.1761L32.8647 41.0102V41.0088H32.8633ZM56.149 42.0745L52.0721 41.6482C52.4513 40.7943 53.0915 40.0827 53.9006 39.6155C54.7097 39.1483 55.6461 38.9496 56.5752 39.0481H56.5793L60.6617 39.4743C60.2788 40.3274 59.6365 41.0379 58.8262 41.5045C58.0159 41.9711 57.079 42.1701 56.149 42.0731V42.0745ZM44.1026 52.1037C44.5515 50.8122 45.4239 49.7104 46.5782 48.9775C47.7325 48.2446 49.1008 47.9236 50.4606 48.0667L56.1833 48.6635C55.7344 49.955 54.862 51.0568 53.7077 51.7897C52.5534 52.5226 51.1851 52.8436 49.8253 52.7005L44.1026 52.1037Z" fill="white"/>
</svg>
