<svg width="53" height="53" viewBox="0 0 53 53" fill="none" xmlns="http://www.w3.org/2000/svg">
<path d="M43.0624 45.4285H9.93743C8.3661 45.4286 6.85429 44.8274 5.71214 43.7483C4.56998 42.6691 3.88407 41.1938 3.79511 39.625L3.78564 39.2767V11.8303C3.78551 10.7511 4.19506 9.71213 4.93152 8.92332C5.66798 8.1345 6.67644 7.65468 7.75307 7.58081L8.04457 7.57135H37.3839C38.463 7.57122 39.502 7.98077 40.2908 8.71723C41.0796 9.45369 41.5595 10.4621 41.6333 11.5388L41.6428 11.8303V13.2499H44.9553C46.0345 13.2498 47.0734 13.6593 47.8622 14.3958C48.6511 15.1323 49.1309 16.1407 49.2048 17.2173L49.2142 17.5089V39.2767C49.2143 40.848 48.6131 42.3598 47.534 43.502C46.4548 44.6442 44.9795 45.3301 43.4107 45.419L43.0624 45.4285H9.93743H43.0624ZM9.93743 42.5892H43.0624C43.8941 42.5891 44.6952 42.2763 45.3068 41.7127C45.9184 41.1492 46.2956 40.3762 46.3636 39.5474L46.3749 39.2767V17.5089C46.3749 17.1658 46.2507 16.8343 46.0252 16.5758C45.7997 16.3173 45.4882 16.1491 45.1484 16.1025L44.9553 16.0892H41.6428V36.4374C41.6428 36.7805 41.5185 37.1119 41.293 37.3705C41.0676 37.629 40.7561 37.7972 40.4162 37.8438L40.2231 37.8571C39.8801 37.8571 39.5486 37.7328 39.2901 37.5073C39.0316 37.2818 38.8634 36.9704 38.8168 36.6305L38.8035 36.4374V11.8303C38.8035 11.4872 38.6792 11.1558 38.4538 10.8972C38.2283 10.6387 37.9168 10.4705 37.5769 10.4239L37.3839 10.4106H8.04457C7.70152 10.4107 7.37007 10.5349 7.11153 10.7604C6.85298 10.9859 6.68484 11.2973 6.63818 11.6372L6.62493 11.8303V39.2767C6.62496 40.108 6.93758 40.909 7.50072 41.5205C8.06386 42.132 8.83635 42.5094 9.66486 42.5779L9.93743 42.5892H43.0624H9.93743ZM19.3941 24.6146C20.7002 24.6146 21.7602 25.6746 21.7602 26.9807V33.5981C21.7602 34.9042 20.7002 35.9642 19.3941 35.9642H12.7767C11.4706 35.9642 10.4106 34.9042 10.4106 33.5981V26.9807C10.4106 25.6746 11.4706 24.6146 12.7767 24.6146H19.3941ZM26.9731 33.1249H33.5906C33.9503 33.125 34.2965 33.2617 34.5593 33.5072C34.8221 33.7528 34.982 34.0889 35.0065 34.4478C35.031 34.8067 34.9184 35.1614 34.6914 35.4405C34.4644 35.7195 34.14 35.9019 33.7836 35.951L33.5906 35.9642H26.9731C26.6135 35.9641 26.2672 35.8275 26.0044 35.5819C25.7416 35.3363 25.5818 35.0002 25.5572 34.6413C25.5327 34.2825 25.6453 33.9277 25.8723 33.6487C26.0993 33.3697 26.4237 33.1872 26.7801 33.1382L26.9731 33.1249H33.5906H26.9731V33.1249ZM18.9228 27.4539H13.2499V33.1249H18.9228V27.4539ZM26.9731 24.6146H33.5906C33.9503 24.6147 34.2965 24.7514 34.5593 24.9969C34.8221 25.2425 34.982 25.5787 35.0065 25.9375C35.031 26.2964 34.9184 26.6511 34.6914 26.9302C34.4644 27.2092 34.14 27.3916 33.7836 27.4407L33.5906 27.4539H26.9731C26.6109 27.4576 26.2609 27.3227 25.9949 27.0767C25.7289 26.8308 25.567 26.4925 25.5424 26.1311C25.5177 25.7696 25.6321 25.4124 25.8622 25.1326C26.0923 24.8528 26.4207 24.6716 26.7801 24.626L26.9731 24.6146H33.5906H26.9731V24.6146ZM11.8227 16.0835H33.5906C33.9503 16.0836 34.2965 16.2203 34.5593 16.4658C34.8221 16.7114 34.982 17.0476 35.0065 17.4064C35.031 17.7653 34.9184 18.12 34.6914 18.3991C34.4644 18.6781 34.14 18.8605 33.7836 18.9096L33.5906 18.9228H11.8227C11.4632 18.9222 11.1173 18.7853 10.8548 18.5395C10.5924 18.2938 10.4329 17.9577 10.4086 17.599C10.3844 17.2403 10.4971 16.8857 10.7241 16.6069C10.9511 16.3281 11.2754 16.1458 11.6315 16.0968L11.8227 16.0835H33.5906H11.8227V16.0835Z" fill="white"/>
</svg>
