<svg width="72" height="72" viewBox="0 0 72 72" fill="none" xmlns="http://www.w3.org/2000/svg">
<path d="M25.9421 31.266C24.2766 29.6348 23.1288 27.5489 22.6421 25.269C22.1961 23.018 22.3581 20.335 24.8291 18.675C24.8291 18.675 35.2681 11.287 44.4221 18.675C44.4221 18.675 55.5021 25.5 53.8161 43.325C53.8161 43.325 53.6561 55.611 41.1291 55.772C41.1291 55.772 34.9471 57.297 34.3041 47.18C34.3651 46.238 34.3641 45.292 34.2991 44.35C34.1757 42.4418 33.6718 40.5776 32.817 38.8671C31.9623 37.1566 30.774 35.6344 29.3221 34.39C28.1555 33.3928 27.028 32.3507 25.9421 31.266Z" fill="#00A6A6"/>
<path d="M25.9421 31.266C24.2766 29.6348 23.1288 27.5489 22.6421 25.269C22.1961 23.018 22.3581 20.335 24.8291 18.675C24.8291 18.675 35.2681 11.287 44.4221 18.675C44.4221 18.675 55.5021 25.5 53.8161 43.325C53.8161 43.325 53.6561 55.611 41.1291 55.772C41.1291 55.772 34.9471 57.297 34.3041 47.18C34.3651 46.238 34.3641 45.292 34.2991 44.35C34.1757 42.4418 33.6718 40.5776 32.817 38.8671C31.9623 37.1566 30.774 35.6344 29.3221 34.39C28.1555 33.3928 27.028 32.3507 25.9421 31.266Z" fill="#00A6A6"/>
<path d="M27.7849 31.266C26.1194 29.6348 24.9716 27.5489 24.4849 25.269C24.0389 23.018 24.2009 20.335 26.6719 18.675C26.6719 18.675 37.1109 11.287 46.2649 18.675C46.2649 18.675 57.3449 25.5 55.6589 43.325C55.6589 43.325 55.4989 55.611 42.9719 55.772C42.9719 55.772 36.7899 57.297 36.1469 47.18C36.2079 46.238 36.2069 45.292 36.1419 44.35C36.0185 42.4418 35.5146 40.5776 34.6598 38.8671C33.8051 37.1566 32.6168 35.6344 31.1649 34.39C29.9982 33.3928 28.8707 32.3507 27.7849 31.266V31.266Z" stroke="#008484" stroke-width="2" stroke-miterlimit="10"/>
<path d="M36.83 29.073C36.83 29.073 32.926 30.665 29.578 29.508M42.25 43.486C42.25 43.486 35.344 42.683 32.614 39.672C32.614 39.672 29.305 35.933 22.778 39.672L16 42.009" stroke="#008484" stroke-width="2" stroke-linecap="round" stroke-linejoin="round"/>
<path d="M38.631 33.6901C38.1985 34.0638 37.9017 34.5701 37.787 35.1301C37.6522 35.7747 37.728 36.4456 38.003 37.0441C38.341 37.8301 38.788 39.6281 37.699 42.4841M16 42.0091L22.778 39.6721C22.778 39.6721 28.398 37.4241 29.202 33.9721C29.202 33.9721 28.88 27.9491 31.289 26.6641" stroke="#008484" stroke-width="2" stroke-linecap="round" stroke-linejoin="round"/>
</svg>
