<svg width="72" height="72" viewBox="0 0 72 72" fill="none" xmlns="http://www.w3.org/2000/svg">
<path d="M56.362 61.299V59.522C56.3048 59.3592 56.2738 59.1885 56.27 59.016C56.3228 58.2993 56.1575 57.5833 55.7959 56.9622C55.4344 56.3412 54.8933 55.844 54.244 55.536C53.996 55.397 53.756 55.232 53.508 55.093C51.094 53.8281 48.5778 52.7687 45.986 51.926C44.762 51.493 43.528 51.079 42.312 50.628C41.9657 50.5249 41.6632 50.31 41.4517 50.017C41.2403 49.724 41.1317 49.3692 41.143 49.008C41.133 47.958 41.106 46.908 41.171 45.859C41.2011 45.4147 41.361 44.9891 41.631 44.635C42.585 43.4078 43.2067 41.9554 43.436 40.418C43.5189 39.7113 43.7112 39.0217 44.006 38.374C44.534 37.3823 44.901 36.313 45.093 35.206C45.1608 34.6991 45.1642 34.1857 45.103 33.678C45.066 33.052 44.937 32.426 44.937 31.791C44.9428 31.2565 44.995 30.7235 45.093 30.198C45.2881 28.9587 45.1734 27.6904 44.7589 26.5063C44.3445 25.3222 43.6433 24.2591 42.718 23.412C41.3951 22.1148 39.6854 21.2842 37.848 21.046C37.3326 20.9638 36.8132 20.9087 36.292 20.881V20.871C36.2551 20.8698 36.2181 20.8732 36.182 20.881C36.1486 20.873 36.1143 20.8697 36.08 20.871V20.881C35.5559 20.9092 35.0335 20.9642 34.515 21.046C32.6782 21.2861 30.969 22.1164 29.645 23.412C28.7208 24.2597 28.0211 25.3232 27.6082 26.5073C27.1953 27.6915 27.0822 28.9595 27.279 30.198C27.3679 30.7247 27.42 31.257 27.435 31.791C27.426 32.426 27.306 33.052 27.27 33.678C27.2102 34.1856 27.2102 34.6984 27.27 35.206C27.4649 36.3133 27.8345 37.3827 28.365 38.374C28.653 39.0236 28.8424 39.7125 28.927 40.418C29.1597 41.9558 29.7845 43.4077 30.741 44.634C31.0111 44.9884 31.1711 45.4144 31.201 45.859C31.265 46.909 31.228 47.958 31.219 49.008C31.2321 49.3697 31.1242 49.7255 30.9122 50.019C30.7003 50.3124 30.3965 50.5267 30.049 50.628C28.834 51.078 27.601 51.493 26.376 51.926C23.7865 52.7671 21.2731 53.8265 18.863 55.093C18.615 55.231 18.375 55.397 18.127 55.535C17.4777 55.843 16.9366 56.3402 16.5751 56.9612C16.2135 57.5823 16.0482 58.2983 16.101 59.015C16.0896 59.1874 16.0556 59.3575 16 59.521V61.298" fill="white"/>
<path d="M31.0099 22.43C32.4179 21.729 37.1269 19.773 41.4429 22.423C41.5529 22.4926 41.6433 22.5891 41.7058 22.7033C41.7682 22.8176 41.8006 22.9458 41.7999 23.076V26.16C41.7992 26.2777 41.7715 26.3938 41.7187 26.4991C41.666 26.6043 41.5897 26.6961 41.4958 26.7672C41.4019 26.8382 41.2929 26.8867 41.1773 26.9089C41.0616 26.9311 40.9424 26.9263 40.8289 26.895C37.7964 26.037 34.5871 26.0242 31.5479 26.858C31.4349 26.8892 31.3162 26.8938 31.2011 26.8714C31.0861 26.8491 30.9777 26.8003 30.8847 26.7289C30.7917 26.6576 30.7164 26.5657 30.6649 26.4604C30.6134 26.355 30.5871 26.2392 30.5879 26.122V23.113C30.5872 22.9711 30.6262 22.8319 30.7006 22.7112C30.7751 22.5905 30.8819 22.493 31.0089 22.43H31.0099Z" fill="#00A6A6"/>
<path d="M56.362 61.299V59.522C56.3048 59.3592 56.2738 59.1885 56.27 59.016C56.3228 58.2993 56.1575 57.5833 55.7959 56.9622C55.4344 56.3412 54.8933 55.844 54.244 55.536C53.996 55.397 53.756 55.232 53.508 55.093C51.094 53.8281 48.5778 52.7687 45.986 51.926C44.762 51.493 43.528 51.079 42.312 50.628C41.9657 50.5249 41.6632 50.31 41.4517 50.017C41.2403 49.724 41.1317 49.3692 41.143 49.008C41.133 47.958 41.106 46.908 41.171 45.859C41.2011 45.4147 41.361 44.9891 41.631 44.635C42.585 43.4078 43.2067 41.9554 43.436 40.418C43.5189 39.7113 43.7112 39.0217 44.006 38.374C44.534 37.3823 44.901 36.313 45.093 35.206C45.1608 34.6991 45.1642 34.1857 45.103 33.678C45.066 33.052 44.937 32.426 44.937 31.791C44.9428 31.2565 44.995 30.7235 45.093 30.198C45.2881 28.9587 45.1734 27.6904 44.7589 26.5063C44.3445 25.3222 43.6433 24.2591 42.718 23.412C41.3951 22.1148 39.6854 21.2842 37.848 21.046C37.3326 20.9638 36.8132 20.9087 36.292 20.881V20.871C36.2551 20.8698 36.2181 20.8732 36.182 20.881C36.1486 20.873 36.1143 20.8697 36.08 20.871V20.881C35.5559 20.9092 35.0335 20.9642 34.515 21.046C32.6782 21.2861 30.969 22.1164 29.645 23.412C28.7208 24.2597 28.0211 25.3232 27.6082 26.5073C27.1953 27.6915 27.0822 28.9595 27.279 30.198C27.3679 30.7247 27.42 31.257 27.435 31.791C27.426 32.426 27.306 33.052 27.27 33.678C27.2102 34.1856 27.2102 34.6984 27.27 35.206C27.4649 36.3133 27.8345 37.3827 28.365 38.374C28.653 39.0236 28.8424 39.7125 28.927 40.418C29.1597 41.9558 29.7845 43.4077 30.741 44.634C31.0111 44.9884 31.1711 45.4144 31.201 45.859C31.265 46.909 31.228 47.958 31.219 49.008C31.2321 49.3697 31.1242 49.7255 30.9122 50.019C30.7003 50.3124 30.3965 50.5267 30.049 50.628C28.834 51.078 27.601 51.493 26.376 51.926C23.7865 52.7671 21.2731 53.8265 18.863 55.093C18.615 55.231 18.375 55.397 18.127 55.535C17.4777 55.843 16.9366 56.3402 16.5751 56.9612C16.2135 57.5823 16.0482 58.2983 16.101 59.015C16.0896 59.1874 16.0556 59.3575 16 59.521V61.298" stroke="#00A6A6" stroke-width="2.001" stroke-linecap="round" stroke-linejoin="round"/>
<path d="M30.9962 22.4301C32.4042 21.7291 37.1132 19.7731 41.4292 22.4231C41.5392 22.4928 41.6297 22.5892 41.6921 22.7035C41.7546 22.8177 41.787 22.9459 41.7862 23.0761V26.1601C41.7856 26.2779 41.7578 26.3939 41.7051 26.4992C41.6523 26.6045 41.5761 26.6962 41.4822 26.7673C41.3883 26.8384 41.2793 26.8869 41.1636 26.909C41.048 26.9312 40.9288 26.9264 40.8152 26.8951C37.7828 26.0372 34.5735 26.0244 31.5342 26.8581C31.4212 26.8893 31.3025 26.894 31.1875 26.8716C31.0724 26.8492 30.9641 26.8004 30.871 26.7291C30.778 26.6577 30.7028 26.5658 30.6513 26.4605C30.5998 26.3552 30.5734 26.2393 30.5742 26.1221V23.1131C30.5735 22.9713 30.6125 22.8321 30.687 22.7113C30.7614 22.5906 30.8682 22.4932 30.9952 22.4301H30.9962Z" stroke="#00A6A6" stroke-width="2" stroke-miterlimit="10"/>
<path d="M43.3788 16.948L45.3608 12.911L47.3878 15.063L49.8778 9.99104M24.5598 8.85704L26.8918 12.702L23.9878 13.251L26.9188 18.082M36.7228 15.28L36.5338 10.787L33.8118 11.94L33.5738 6.29504" stroke="#00A6A6" stroke-width="2" stroke-linecap="round" stroke-linejoin="round"/>
<path d="M43.393 16.948L45.375 12.911L47.402 15.063L49.892 9.99104M24.574 8.85704L26.906 12.702L24.002 13.251L26.933 18.082M36.737 15.28L36.548 10.787L33.826 11.94L33.588 6.29504" stroke="#00A6A6" stroke-width="2" stroke-linecap="round" stroke-linejoin="round"/>
</svg>
